<?xml version="1.0" standalone="no"?>
<!DOCTYPE svg PUBLIC "-//W3C//DTD SVG 20010904//EN"
 "http://www.w3.org/TR/2001/REC-SVG-20010904/DTD/svg10.dtd">
<svg version="1.0" xmlns="http://www.w3.org/2000/svg"
 width="1920.000000pt" height="1152.000000pt" viewBox="0 0 1920.000000 1152.000000"
 preserveAspectRatio="xMidYMid meet">

<g transform="translate(0.000000,1152.000000) scale(0.100000,-0.100000)"
fill="currentColor" stroke="none">
<path d="M36 11265 c-35 -35 0 -93 48 -81 29 7 45 49 29 75 -14 22 -57 25 -77
6z"/>
<path d="M612 11268 c-18 -18 -15 -52 6 -71 25 -22 45 -21 67 3 27 30 10 74
-30 78 -17 2 -36 -3 -43 -10z"/>
<path d="M1192 11268 c-19 -19 -15 -66 7 -78 11 -5 24 -10 30 -10 16 0 51 38
51 54 0 37 -61 61 -88 34z"/>
<path d="M1765 11256 c-28 -43 18 -91 63 -67 26 14 33 45 15 70 -19 29 -59 27
-78 -3z"/>
<path d="M2346 11265 c-35 -35 0 -93 48 -81 29 7 45 49 29 75 -14 22 -57 25
-77 6z"/>
<path d="M2922 11268 c-28 -28 -3 -88 37 -88 10 0 26 9 36 20 27 30 10 74 -30
78 -17 2 -36 -3 -43 -10z"/>
<path d="M3502 11268 c-19 -19 -15 -66 7 -78 11 -5 24 -10 30 -10 16 0 51 38
51 54 0 37 -61 61 -88 34z"/>
<path d="M4075 11256 c-13 -19 -14 -29 -6 -45 25 -45 91 -33 91 17 0 54 -56
72 -85 28z"/>
<path d="M4656 11265 c-35 -35 0 -93 48 -81 29 7 45 49 29 75 -14 22 -57 25
-77 6z"/>
<path d="M5232 11268 c-18 -18 -15 -52 6 -71 25 -22 45 -21 67 3 27 30 10 74
-30 78 -17 2 -36 -3 -43 -10z"/>
<path d="M5812 11268 c-7 -7 -12 -24 -12 -40 0 -50 66 -62 91 -17 23 43 -44
92 -79 57z"/>
<path d="M6385 11256 c-13 -19 -14 -29 -6 -45 25 -45 91 -33 91 17 0 54 -56
72 -85 28z"/>
<path d="M6966 11265 c-35 -35 0 -93 48 -81 29 7 45 49 29 75 -14 22 -57 25
-77 6z"/>
<path d="M7542 11268 c-28 -28 -3 -88 37 -88 10 0 26 9 36 20 27 30 10 74 -30
78 -17 2 -36 -3 -43 -10z"/>
<path d="M8122 11268 c-20 -20 -14 -66 9 -79 27 -14 65 1 74 31 13 42 -51 80
-83 48z"/>
<path d="M8696 11261 c-35 -39 12 -94 60 -72 27 12 33 58 12 79 -18 18 -53 14
-72 -7z"/>
<path d="M9276 11265 c-35 -35 0 -93 48 -81 29 7 45 49 29 75 -14 22 -57 25
-77 6z"/>
<path d="M9852 11268 c-28 -28 -3 -88 37 -88 22 0 51 30 51 53 0 38 -61 62
-88 35z"/>
<path d="M10432 11268 c-20 -20 -14 -66 9 -79 27 -14 65 1 74 31 13 42 -51 80
-83 48z"/>
<path d="M11006 11261 c-35 -39 12 -94 60 -72 27 12 33 58 12 79 -18 18 -53
14 -72 -7z"/>
<path d="M11581 11261 c-16 -29 -14 -46 9 -66 41 -37 102 17 73 64 -16 25 -69
26 -82 2z"/>
<path d="M12162 11268 c-28 -28 -3 -88 37 -88 22 0 51 30 51 53 0 38 -61 62
-88 35z"/>
<path d="M12742 11268 c-7 -7 -12 -24 -12 -40 0 -50 66 -62 91 -17 23 43 -44
92 -79 57z"/>
<path d="M13315 11256 c-13 -19 -14 -29 -6 -45 25 -45 91 -33 91 17 0 54 -56
72 -85 28z"/>
<path d="M13890 11261 c-15 -28 -12 -46 8 -64 24 -22 45 -21 65 1 20 22 22 53
5 70 -19 19 -66 15 -78 -7z"/>
<path d="M14472 11268 c-28 -28 -3 -88 37 -88 22 0 51 30 51 53 0 38 -61 62
-88 35z"/>
<path d="M15052 11268 c-7 -7 -12 -24 -12 -40 0 -50 66 -62 91 -17 23 43 -44
92 -79 57z"/>
<path d="M15626 11264 c-21 -21 -20 -40 4 -64 23 -23 33 -24 61 -10 22 12 26
59 7 78 -17 17 -54 15 -72 -4z"/>
<path d="M16201 11261 c-16 -29 -14 -46 9 -66 41 -37 102 17 73 64 -16 25 -69
26 -82 2z"/>
<path d="M16782 11268 c-28 -28 -3 -88 37 -88 22 0 51 30 51 53 0 38 -61 62
-88 35z"/>
<path d="M17357 11259 c-18 -25 -11 -56 15 -70 45 -24 91 24 63 67 -19 30 -59
32 -78 3z"/>
<path d="M17936 11264 c-21 -21 -20 -40 4 -64 23 -23 33 -24 61 -10 22 12 26
59 7 78 -17 17 -54 15 -72 -4z"/>
<path d="M18510 11261 c-15 -28 -12 -46 8 -64 24 -22 45 -21 65 1 20 22 22 53
5 70 -19 19 -66 15 -78 -7z"/>
<path d="M19092 11268 c-28 -28 -3 -88 37 -88 22 0 51 30 51 53 0 38 -61 62
-88 35z"/>
<path d="M328 10698 c-24 -20 -28 -44 -12 -67 17 -23 53 -28 72 -9 19 19 15
66 -7 78 -25 13 -34 13 -53 -2z"/>
<path d="M900 10690 c-23 -23 -24 -33 -10 -61 12 -22 59 -26 78 -7 18 18 15
53 -6 71 -24 22 -38 21 -62 -3z"/>
<path d="M1482 10694 c-41 -29 -23 -84 28 -84 32 0 50 17 50 46 0 20 -32 54
-50 54 -3 0 -16 -7 -28 -16z"/>
<path d="M2062 10694 c-24 -17 -29 -53 -10 -72 19 -19 66 -15 78 7 14 28 13
38 -10 61 -24 24 -29 24 -58 4z"/>
<path d="M2638 10698 c-52 -42 4 -115 61 -79 20 13 17 62 -5 78 -22 16 -36 16
-56 1z"/>
<path d="M3210 10690 c-23 -23 -24 -33 -10 -61 12 -22 59 -26 78 -7 18 18 15
53 -6 71 -24 22 -38 21 -62 -3z"/>
<path d="M3792 10694 c-41 -29 -23 -84 28 -84 32 0 50 17 50 46 0 20 -32 54
-50 54 -3 0 -16 -7 -28 -16z"/>
<path d="M4367 10692 c-20 -22 -22 -53 -5 -70 19 -19 66 -15 78 7 14 28 13 38
-10 61 -25 25 -42 25 -63 2z"/>
<path d="M4948 10698 c-37 -31 -20 -88 27 -88 28 0 56 35 48 59 -7 19 -32 41
-48 41 -6 0 -18 -6 -27 -12z"/>
<path d="M5520 10690 c-23 -23 -24 -33 -10 -61 12 -22 59 -26 78 -7 19 19 14
55 -10 72 -29 20 -34 20 -58 -4z"/>
<path d="M6102 10694 c-41 -29 -23 -84 28 -84 32 0 50 17 50 46 0 20 -32 54
-50 54 -3 0 -16 -7 -28 -16z"/>
<path d="M6676 10694 c-19 -18 -21 -55 -4 -72 19 -19 66 -15 78 7 14 28 13 38
-10 61 -24 24 -43 25 -64 4z"/>
<path d="M7258 10698 c-38 -31 -25 -88 20 -88 35 0 52 16 52 52 0 40 -41 60
-72 36z"/>
<path d="M7830 10690 c-23 -23 -24 -33 -10 -61 12 -22 59 -26 78 -7 19 19 14
55 -10 72 -29 20 -34 20 -58 -4z"/>
<path d="M8412 10694 c-41 -29 -23 -84 28 -84 32 0 50 17 50 46 0 20 -32 54
-50 54 -3 0 -16 -7 -28 -16z"/>
<path d="M8987 10692 c-20 -22 -22 -53 -5 -70 19 -19 66 -15 78 7 14 28 13 38
-10 61 -25 25 -42 25 -63 2z"/>
<path d="M9572 10703 c-44 -18 -32 -93 16 -93 35 0 52 16 52 52 0 36 -32 56
-68 41z"/>
<path d="M10140 10690 c-23 -23 -24 -33 -10 -61 12 -22 59 -26 78 -7 19 19 14
55 -10 72 -29 20 -34 20 -58 -4z"/>
<path d="M10722 10694 c-41 -29 -23 -84 28 -84 32 0 50 17 50 46 0 20 -32 54
-50 54 -3 0 -16 -7 -28 -16z"/>
<path d="M11308 10703 c-22 -5 -35 -50 -21 -72 15 -23 64 -27 80 -5 18 25 16
41 -7 64 -20 20 -22 21 -52 13z"/>
<path d="M11870 10690 c-24 -24 -25 -43 -4 -64 22 -22 60 -20 78 5 16 23 12
47 -12 67 -22 17 -39 15 -62 -8z"/>
<path d="M12449 10691 c-20 -16 -22 -23 -14 -47 18 -52 95 -42 95 12 0 20 -32
54 -51 54 -4 0 -17 -9 -30 -19z"/>
<path d="M13032 10694 c-12 -8 -22 -26 -22 -38 0 -54 77 -64 95 -12 8 24 6 31
-14 47 -28 23 -31 23 -59 3z"/>
<path d="M13606 10694 c-19 -18 -21 -55 -4 -72 19 -19 66 -15 78 7 14 28 13
38 -10 61 -24 24 -43 25 -64 4z"/>
<path d="M14180 10690 c-23 -23 -24 -33 -10 -61 12 -22 59 -26 78 -7 19 19 15
66 -7 78 -28 14 -38 13 -61 -10z"/>
<path d="M14760 10690 c-23 -23 -24 -33 -10 -61 12 -22 59 -26 78 -7 19 19 14
55 -10 72 -29 20 -34 20 -58 -4z"/>
<path d="M15342 10694 c-41 -29 -23 -84 28 -84 32 0 50 17 50 46 0 20 -32 54
-50 54 -3 0 -16 -7 -28 -16z"/>
<path d="M15918 10699 c-21 -12 -24 -59 -6 -77 7 -7 25 -12 40 -12 50 0 60 76
12 94 -21 8 -26 7 -46 -5z"/>
<path d="M16491 10691 c-24 -24 -25 -34 -11 -62 12 -22 59 -26 78 -7 13 13 16
47 4 64 -15 24 -50 26 -71 5z"/>
<path d="M17070 10690 c-23 -23 -24 -33 -10 -61 12 -22 59 -26 78 -7 19 19 14
55 -10 72 -29 20 -34 20 -58 -4z"/>
<path d="M17652 10694 c-12 -8 -22 -26 -22 -38 0 -54 77 -64 95 -12 8 24 6 31
-14 47 -28 23 -31 23 -59 3z"/>
<path d="M18228 10699 c-21 -12 -24 -59 -6 -77 19 -19 66 -15 78 7 14 28 13
38 -10 61 -22 22 -37 24 -62 9z"/>
<path d="M18800 10690 c-23 -23 -24 -33 -10 -61 12 -22 59 -26 78 -7 18 18 15
53 -6 71 -24 22 -38 21 -62 -3z"/>
<path d="M37 10112 c-22 -25 -21 -45 3 -67 30 -27 74 -10 78 30 6 49 -48 73
-81 37z"/>
<path d="M616 10114 c-31 -30 -9 -84 34 -84 24 0 50 26 50 50 0 24 -26 50 -50
50 -10 0 -26 -7 -34 -16z"/>
<path d="M1192 10118 c-15 -15 -15 -61 0 -76 27 -27 88 0 88 40 0 36 -62 62
-88 36z"/>
<path d="M1764 10105 c-15 -23 -15 -27 0 -50 29 -44 86 -28 86 25 0 53 -57 69
-86 25z"/>
<path d="M2347 10112 c-22 -24 -21 -45 1 -65 37 -34 82 -15 82 33 0 49 -51 68
-83 32z"/>
<path d="M2926 10114 c-31 -30 -9 -84 34 -84 24 0 50 26 50 50 0 24 -26 50
-50 50 -10 0 -26 -7 -34 -16z"/>
<path d="M3502 10118 c-7 -7 -12 -24 -12 -38 0 -32 17 -50 45 -50 25 0 55 29
55 52 0 36 -62 62 -88 36z"/>
<path d="M4074 10105 c-15 -23 -15 -27 0 -50 29 -44 86 -28 86 25 0 53 -57 69
-86 25z"/>
<path d="M4657 10112 c-22 -24 -21 -45 1 -65 23 -21 46 -22 66 -1 30 30 9 84
-33 84 -10 0 -25 -8 -34 -18z"/>
<path d="M5236 10114 c-9 -8 -16 -24 -16 -34 0 -10 7 -26 16 -34 8 -9 24 -16
34 -16 10 0 26 7 34 16 9 8 16 24 16 34 0 10 -7 26 -16 34 -8 9 -24 16 -34 16
-10 0 -26 -7 -34 -16z"/>
<path d="M5812 10118 c-7 -7 -12 -24 -12 -38 0 -53 57 -69 86 -25 15 23 15 27
0 50 -18 27 -54 33 -74 13z"/>
<path d="M6384 10105 c-15 -23 -15 -27 0 -50 29 -44 86 -28 86 25 0 53 -57 69
-86 25z"/>
<path d="M6966 10114 c-9 -8 -16 -24 -16 -34 0 -10 7 -26 16 -34 8 -9 24 -16
34 -16 10 0 26 7 34 16 9 8 16 24 16 34 0 10 -7 26 -16 34 -8 9 -24 16 -34 16
-10 0 -26 -7 -34 -16z"/>
<path d="M7546 10114 c-9 -8 -16 -24 -16 -34 0 -10 7 -26 16 -34 8 -9 24 -16
34 -16 10 0 26 7 34 16 9 8 16 24 16 34 0 10 -7 26 -16 34 -8 9 -24 16 -34 16
-10 0 -26 -7 -34 -16z"/>
<path d="M8122 10118 c-7 -7 -12 -24 -12 -38 0 -53 57 -69 86 -25 15 23 15 27
0 50 -18 27 -54 33 -74 13z"/>
<path d="M8694 10105 c-15 -23 -15 -27 0 -50 29 -44 86 -28 86 25 0 53 -57 69
-86 25z"/>
<path d="M9276 10114 c-9 -8 -16 -24 -16 -34 0 -22 26 -50 46 -50 32 0 54 21
54 50 0 45 -52 66 -84 34z"/>
<path d="M9858 10119 c-25 -14 -24 -65 1 -79 27 -14 47 -13 65 6 44 44 -12
105 -66 73z"/>
<path d="M10432 10118 c-7 -7 -12 -24 -12 -38 0 -53 57 -69 86 -25 15 23 15
27 0 50 -18 27 -54 33 -74 13z"/>
<path d="M11004 10105 c-15 -23 -15 -27 0 -50 29 -44 86 -28 86 25 0 53 -57
69 -86 25z"/>
<path d="M11586 10114 c-31 -30 -9 -84 34 -84 24 0 50 26 50 50 0 24 -26 50
-50 50 -10 0 -26 -7 -34 -16z"/>
<path d="M12166 10114 c-31 -30 -9 -84 34 -84 24 0 50 26 50 50 0 24 -26 50
-50 50 -10 0 -26 -7 -34 -16z"/>
<path d="M12742 10118 c-7 -7 -12 -24 -12 -38 0 -53 57 -69 86 -25 15 23 15
27 0 50 -18 27 -54 33 -74 13z"/>
<path d="M13314 10105 c-15 -23 -15 -27 0 -50 29 -44 86 -28 86 25 0 53 -57
69 -86 25z"/>
<path d="M13896 10114 c-31 -30 -9 -84 34 -84 24 0 50 26 50 50 0 24 -26 50
-50 50 -10 0 -26 -7 -34 -16z"/>
<path d="M14476 10114 c-30 -30 -9 -84 33 -84 21 0 51 30 51 52 0 19 -32 48
-53 48 -8 0 -23 -7 -31 -16z"/>
<path d="M15052 10118 c-7 -7 -12 -24 -12 -38 0 -53 57 -69 86 -25 15 23 15
27 0 50 -18 27 -54 33 -74 13z"/>
<path d="M15627 10112 c-22 -24 -21 -45 1 -65 37 -34 82 -15 82 33 0 49 -51
68 -83 32z"/>
<path d="M16206 10114 c-31 -30 -9 -84 34 -84 24 0 50 26 50 50 0 24 -26 50
-50 50 -10 0 -26 -7 -34 -16z"/>
<path d="M16782 10118 c-7 -7 -12 -24 -12 -38 0 -32 17 -50 45 -50 25 0 55 29
55 52 0 36 -62 62 -88 36z"/>
<path d="M17362 10118 c-7 -7 -12 -24 -12 -38 0 -53 57 -69 86 -25 15 23 15
27 0 50 -18 27 -54 33 -74 13z"/>
<path d="M17937 10112 c-22 -24 -21 -45 1 -65 37 -34 82 -15 82 33 0 49 -51
68 -83 32z"/>
<path d="M18516 10114 c-31 -30 -9 -84 34 -84 24 0 50 26 50 50 0 24 -26 50
-50 50 -10 0 -26 -7 -34 -16z"/>
<path d="M19096 10117 c-28 -20 -18 -69 16 -81 51 -18 89 42 50 77 -22 20 -42
21 -66 4z"/>
<path d="M317 9529 c-30 -42 12 -92 59 -70 27 12 33 58 12 79 -19 19 -55 14
-71 -9z"/>
<path d="M890 9530 c-15 -28 -4 -59 26 -72 19 -9 28 -8 44 7 22 20 26 55 8 73
-20 20 -66 15 -78 -8z"/>
<path d="M1472 9538 c-20 -20 -14 -56 13 -74 23 -15 27 -15 50 0 44 29 28 86
-25 86 -14 0 -31 -5 -38 -12z"/>
<path d="M2052 9538 c-35 -35 14 -102 57 -79 45 25 33 91 -17 91 -16 0 -33 -5
-40 -12z"/>
<path d="M2627 9529 c-30 -42 12 -92 59 -70 23 10 29 27 24 61 -5 35 -61 41
-83 9z"/>
<path d="M3200 9530 c-15 -28 -4 -59 26 -72 19 -9 28 -8 44 7 22 20 26 55 8
73 -20 20 -66 15 -78 -8z"/>
<path d="M3782 9538 c-20 -20 -14 -56 13 -74 23 -15 27 -15 50 0 44 29 28 86
-25 86 -14 0 -31 -5 -38 -12z"/>
<path d="M4362 9538 c-18 -18 -14 -53 8 -73 39 -35 96 17 70 65 -12 23 -58 28
-78 8z"/>
<path d="M4936 9534 c-20 -53 13 -97 59 -76 49 22 30 92 -24 92 -17 0 -31 -7
-35 -16z"/>
<path d="M5510 9530 c-14 -26 -5 -57 21 -71 43 -23 92 44 57 79 -20 20 -66 15
-78 -8z"/>
<path d="M6092 9538 c-20 -20 -14 -56 13 -74 23 -15 27 -15 50 0 44 29 28 86
-25 86 -14 0 -31 -5 -38 -12z"/>
<path d="M6672 9538 c-27 -27 -3 -88 34 -88 16 0 54 35 54 51 0 6 -5 19 -10
30 -12 22 -59 26 -78 7z"/>
<path d="M7241 9528 c-18 -49 20 -90 65 -69 27 12 33 58 12 79 -21 21 -68 15
-77 -10z"/>
<path d="M7820 9530 c-14 -26 -5 -57 21 -71 43 -23 92 44 57 79 -20 20 -66 15
-78 -8z"/>
<path d="M8402 9538 c-20 -20 -14 -56 13 -74 23 -15 27 -15 50 0 44 29 28 86
-25 86 -14 0 -31 -5 -38 -12z"/>
<path d="M8982 9538 c-18 -18 -14 -53 8 -73 39 -35 96 17 70 65 -12 23 -58 28
-78 8z"/>
<path d="M9550 9524 c-18 -46 26 -88 68 -65 46 25 25 91 -29 91 -22 0 -32 -6
-39 -26z"/>
<path d="M10130 9530 c-14 -26 -5 -57 21 -71 43 -23 92 44 57 79 -20 20 -66
15 -78 -8z"/>
<path d="M10712 9538 c-20 -20 -14 -56 13 -74 23 -15 27 -15 50 0 44 29 28 86
-25 86 -14 0 -31 -5 -38 -12z"/>
<path d="M11292 9538 c-24 -24 -12 -69 21 -81 41 -15 78 33 57 73 -12 23 -58
28 -78 8z"/>
<path d="M11866 9534 c-21 -21 -20 -40 4 -64 23 -23 40 -25 62 -7 24 19 28 43
12 66 -18 25 -56 27 -78 5z"/>
<path d="M12440 9531 c-16 -31 -12 -49 15 -67 23 -15 27 -15 50 0 27 18 33 54
13 74 -19 19 -66 15 -78 -7z"/>
<path d="M13022 9538 c-20 -20 -14 -56 13 -74 23 -15 27 -15 50 0 27 18 31 36
15 67 -12 22 -59 26 -78 7z"/>
<path d="M13602 9538 c-24 -24 -12 -69 21 -81 41 -15 78 33 57 73 -12 23 -58
28 -78 8z"/>
<path d="M14170 9530 c-24 -45 21 -92 66 -71 27 12 33 58 12 79 -20 20 -66 15
-78 -8z"/>
<path d="M14750 9530 c-14 -26 -5 -57 21 -71 43 -23 92 44 57 79 -20 20 -66
15 -78 -8z"/>
<path d="M15332 9538 c-20 -20 -14 -56 13 -74 23 -15 27 -15 50 0 44 29 28 86
-25 86 -14 0 -31 -5 -38 -12z"/>
<path d="M15912 9538 c-34 -34 2 -97 48 -83 51 16 44 95 -8 95 -15 0 -33 -5
-40 -12z"/>
<path d="M16480 9530 c-22 -41 13 -85 58 -73 26 6 40 48 25 72 -16 26 -69 26
-83 1z"/>
<path d="M17060 9531 c-16 -31 -12 -49 15 -67 23 -15 27 -15 50 0 27 18 33 54
13 74 -19 19 -66 15 -78 -7z"/>
<path d="M17642 9538 c-20 -20 -14 -56 13 -74 23 -15 27 -15 50 0 27 18 31 36
15 67 -12 22 -59 26 -78 7z"/>
<path d="M18222 9538 c-20 -20 -14 -66 9 -79 44 -23 93 26 69 71 -12 23 -58
28 -78 8z"/>
<path d="M18790 9530 c-15 -28 -4 -59 26 -72 19 -9 28 -8 44 7 22 20 26 55 8
73 -20 20 -66 15 -78 -8z"/>
<path d="M35 8960 c-24 -27 -13 -68 22 -76 33 -9 57 6 61 38 6 50 -49 76 -83
38z"/>
<path d="M617 8962 c-36 -39 -12 -86 40 -80 38 4 55 49 28 78 -23 25 -47 26
-68 2z"/>
<path d="M1198 8969 c-21 -12 -24 -59 -6 -77 27 -27 88 -3 88 34 0 17 -36 54
-52 54 -7 0 -21 -5 -30 -11z"/>
<path d="M1770 8960 c-24 -24 -24 -29 -4 -58 19 -28 58 -28 78 -1 16 23 12 47
-12 67 -22 17 -39 15 -62 -8z"/>
<path d="M2345 8960 c-24 -27 -13 -68 22 -76 33 -9 57 6 61 38 6 50 -49 76
-83 38z"/>
<path d="M2926 8964 c-20 -19 -21 -58 -2 -73 25 -21 69 -9 80 21 17 50 -42 89
-78 52z"/>
<path d="M3508 8969 c-21 -12 -24 -59 -6 -77 27 -27 88 -3 88 34 0 17 -36 54
-52 54 -7 0 -21 -5 -30 -11z"/>
<path d="M4080 8960 c-24 -24 -24 -29 -4 -58 17 -24 53 -29 72 -10 19 19 15
66 -7 78 -28 14 -38 13 -61 -10z"/>
<path d="M4655 8960 c-24 -27 -13 -68 22 -76 33 -9 57 6 61 38 6 50 -49 76
-83 38z"/>
<path d="M5237 8962 c-36 -39 -12 -86 40 -80 38 4 55 49 28 78 -23 25 -47 26
-68 2z"/>
<path d="M5818 8969 c-21 -12 -24 -59 -6 -77 19 -19 55 -14 72 10 20 29 20 34
-4 58 -22 22 -37 24 -62 9z"/>
<path d="M6390 8960 c-24 -24 -24 -29 -4 -58 17 -24 53 -29 72 -10 19 19 15
66 -7 78 -28 14 -38 13 -61 -10z"/>
<path d="M6965 8960 c-24 -27 -13 -68 22 -76 33 -9 57 6 61 38 6 50 -49 76
-83 38z"/>
<path d="M7546 8964 c-20 -19 -21 -58 -2 -73 25 -21 69 -9 80 21 17 50 -42 89
-78 52z"/>
<path d="M8128 8969 c-21 -12 -24 -59 -6 -77 18 -18 53 -15 71 6 22 24 21 38
-3 62 -22 22 -37 24 -62 9z"/>
<path d="M8700 8960 c-25 -25 -25 -42 -2 -63 22 -20 53 -22 70 -5 19 19 15 66
-7 78 -28 14 -38 13 -61 -10z"/>
<path d="M9275 8960 c-24 -27 -13 -68 22 -76 33 -9 57 6 61 38 6 50 -49 76
-83 38z"/>
<path d="M9855 8964 c-19 -20 -16 -63 6 -77 26 -16 68 0 75 29 12 48 -46 83
-81 48z"/>
<path d="M10438 8969 c-21 -12 -24 -59 -6 -77 18 -18 53 -15 71 6 22 24 21 38
-3 62 -22 22 -37 24 -62 9z"/>
<path d="M11010 8960 c-25 -25 -25 -42 -2 -63 22 -20 53 -22 70 -5 19 19 15
66 -7 78 -28 14 -38 13 -61 -10z"/>
<path d="M11585 8960 c-15 -16 -17 -26 -9 -48 17 -50 94 -39 94 14 0 49 -52
70 -85 34z"/>
<path d="M12165 8964 c-19 -20 -16 -63 6 -77 26 -16 68 0 75 29 12 48 -46 83
-81 48z"/>
<path d="M12748 8969 c-21 -12 -24 -59 -6 -77 19 -19 55 -14 72 10 20 29 20
34 -4 58 -22 22 -37 24 -62 9z"/>
<path d="M13320 8960 c-24 -24 -24 -29 -4 -58 17 -24 53 -29 72 -10 19 19 15
66 -7 78 -28 14 -38 13 -61 -10z"/>
<path d="M13895 8960 c-27 -29 -10 -74 28 -78 53 -6 77 46 39 81 -25 22 -45
21 -67 -3z"/>
<path d="M14475 8964 c-19 -20 -16 -63 6 -77 26 -16 68 0 75 29 12 48 -46 83
-81 48z"/>
<path d="M15058 8969 c-21 -12 -24 -59 -6 -77 19 -19 55 -14 72 10 20 29 20
34 -4 58 -22 22 -37 24 -62 9z"/>
<path d="M15630 8960 c-24 -24 -25 -43 -4 -64 18 -19 55 -21 72 -4 19 19 15
66 -7 78 -28 14 -38 13 -61 -10z"/>
<path d="M16205 8960 c-15 -16 -17 -26 -9 -48 17 -50 94 -39 94 14 0 49 -52
70 -85 34z"/>
<path d="M16785 8964 c-19 -20 -16 -63 6 -77 26 -16 68 0 75 29 12 48 -46 83
-81 48z"/>
<path d="M17368 8968 c-24 -20 -28 -44 -12 -67 20 -27 59 -27 78 1 20 29 20
34 -4 58 -23 23 -40 25 -62 8z"/>
<path d="M17940 8960 c-24 -24 -25 -43 -4 -64 18 -19 55 -21 72 -4 19 19 15
66 -7 78 -28 14 -38 13 -61 -10z"/>
<path d="M18515 8960 c-27 -29 -10 -74 28 -78 53 -6 77 46 39 81 -25 22 -45
21 -67 -3z"/>
<path d="M19095 8964 c-19 -20 -16 -63 6 -77 26 -16 68 0 75 29 12 48 -46 83
-81 48z"/>
<path d="M322 8388 c-20 -20 -14 -66 9 -79 33 -17 69 3 69 39 0 33 -16 52 -45
52 -12 0 -26 -5 -33 -12z"/>
<path d="M896 8384 c-21 -21 -20 -40 4 -64 23 -23 33 -24 61 -10 22 12 26 59
7 78 -17 17 -54 15 -72 -4z"/>
<path d="M1471 8381 c-16 -28 -14 -46 7 -64 25 -22 45 -21 67 3 15 16 17 26 9
48 -12 35 -67 44 -83 13z"/>
<path d="M2051 8386 c-21 -25 -9 -69 21 -80 50 -17 89 42 52 78 -19 20 -58 21
-73 2z"/>
<path d="M2627 8379 c-29 -41 12 -92 58 -71 46 21 31 92 -20 92 -13 0 -30 -9
-38 -21z"/>
<path d="M3206 8384 c-22 -21 -20 -47 4 -69 44 -40 107 25 69 71 -15 19 -54
18 -73 -2z"/>
<path d="M3781 8381 c-16 -28 -14 -46 7 -64 25 -22 45 -21 67 3 15 16 17 26 9
48 -12 35 -67 44 -83 13z"/>
<path d="M4362 8388 c-19 -19 -15 -66 7 -78 11 -5 24 -10 30 -10 16 0 51 38
51 54 0 37 -61 61 -88 34z"/>
<path d="M4937 8379 c-29 -41 12 -92 58 -71 46 21 31 92 -20 92 -13 0 -30 -9
-38 -21z"/>
<path d="M5516 8385 c-35 -35 0 -93 48 -81 29 7 45 49 29 75 -14 22 -57 25
-77 6z"/>
<path d="M6092 8388 c-18 -18 -15 -52 6 -71 25 -22 45 -21 67 3 27 30 10 74
-30 78 -17 2 -36 -3 -43 -10z"/>
<path d="M6672 8388 c-19 -19 -15 -66 7 -78 11 -5 24 -10 30 -10 16 0 51 38
51 54 0 37 -61 61 -88 34z"/>
<path d="M7245 8376 c-13 -19 -14 -29 -6 -45 25 -45 91 -33 91 17 0 54 -56 72
-85 28z"/>
<path d="M7821 8381 c-16 -29 -14 -46 9 -66 41 -37 102 17 73 64 -16 25 -69
26 -82 2z"/>
<path d="M8402 8388 c-28 -28 -3 -88 37 -88 10 0 26 9 36 20 27 30 10 74 -30
78 -17 2 -36 -3 -43 -10z"/>
<path d="M8982 8388 c-19 -19 -15 -66 7 -78 11 -5 24 -10 30 -10 16 0 51 38
51 54 0 37 -61 61 -88 34z"/>
<path d="M9555 8376 c-13 -19 -14 -29 -6 -45 25 -45 91 -33 91 17 0 54 -56 72
-85 28z"/>
<path d="M10136 8385 c-35 -35 0 -93 48 -81 29 7 45 49 29 75 -14 22 -57 25
-77 6z"/>
<path d="M10712 8388 c-18 -18 -15 -52 6 -71 25 -22 45 -21 67 3 27 30 10 74
-30 78 -17 2 -36 -3 -43 -10z"/>
<path d="M11292 8388 c-20 -20 -14 -66 9 -79 27 -14 65 1 74 31 13 42 -51 80
-83 48z"/>
<path d="M11865 8376 c-28 -43 18 -91 63 -67 26 14 33 45 15 70 -19 29 -59 27
-78 -3z"/>
<path d="M12441 8381 c-16 -29 -14 -46 9 -66 41 -37 102 17 73 64 -16 25 -69
26 -82 2z"/>
<path d="M13022 8388 c-18 -18 -15 -52 6 -71 25 -22 45 -21 67 3 27 30 10 74
-30 78 -17 2 -36 -3 -43 -10z"/>
<path d="M13602 8388 c-7 -7 -12 -24 -12 -40 0 -50 66 -62 91 -17 23 43 -44
92 -79 57z"/>
<path d="M14175 8376 c-13 -19 -14 -29 -6 -45 25 -45 91 -33 91 17 0 54 -56
72 -85 28z"/>
<path d="M14751 8381 c-16 -29 -14 -46 9 -66 41 -37 102 17 73 64 -16 25 -69
26 -82 2z"/>
<path d="M15332 8388 c-28 -28 -3 -88 37 -88 10 0 26 9 36 20 27 30 10 74 -30
78 -17 2 -36 -3 -43 -10z"/>
<path d="M15912 8388 c-7 -7 -12 -24 -12 -40 0 -50 66 -62 91 -17 23 43 -44
92 -79 57z"/>
<path d="M16486 8381 c-35 -39 12 -94 60 -72 27 12 33 58 12 79 -18 18 -53 14
-72 -7z"/>
<path d="M17060 8381 c-15 -28 -12 -46 8 -64 24 -22 45 -21 65 1 20 22 22 53
5 70 -19 19 -66 15 -78 -7z"/>
<path d="M17642 8388 c-28 -28 -3 -88 37 -88 10 0 26 9 36 20 27 30 10 74 -30
78 -17 2 -36 -3 -43 -10z"/>
<path d="M18222 8388 c-7 -7 -12 -24 -12 -40 0 -50 66 -62 91 -17 23 43 -44
92 -79 57z"/>
<path d="M18796 8384 c-21 -21 -20 -40 4 -64 23 -23 33 -24 61 -10 22 12 26
59 7 78 -17 17 -54 15 -72 -4z"/>
<path d="M41 7811 c-24 -24 -25 -34 -11 -62 12 -22 59 -26 78 -7 13 13 16 47
4 64 -15 24 -50 26 -71 5z"/>
<path d="M622 7814 c-41 -29 -23 -84 28 -84 32 0 50 17 50 46 0 20 -32 54 -50
54 -3 0 -16 -7 -28 -16z"/>
<path d="M1196 7814 c-19 -18 -21 -55 -4 -72 19 -19 66 -15 78 7 14 28 13 38
-10 61 -24 24 -43 25 -64 4z"/>
<path d="M1770 7810 c-24 -24 -25 -43 -4 -64 22 -22 60 -20 78 5 16 23 12 47
-12 67 -22 17 -39 15 -62 -8z"/>
<path d="M2350 7810 c-23 -23 -24 -33 -10 -61 12 -22 59 -26 78 -7 19 19 14
55 -10 72 -29 20 -34 20 -58 -4z"/>
<path d="M2932 7814 c-41 -29 -23 -84 28 -84 32 0 50 17 50 46 0 20 -32 54
-50 54 -3 0 -16 -7 -28 -16z"/>
<path d="M3506 7814 c-19 -18 -21 -55 -4 -72 19 -19 66 -15 78 7 14 28 13 38
-10 61 -24 24 -43 25 -64 4z"/>
<path d="M4079 7809 c-21 -21 -19 -56 5 -71 17 -12 51 -9 64 4 19 19 15 66 -7
78 -28 14 -38 13 -62 -11z"/>
<path d="M4660 7810 c-23 -23 -24 -33 -10 -61 12 -22 59 -26 78 -7 19 19 14
55 -10 72 -29 20 -34 20 -58 -4z"/>
<path d="M5242 7814 c-41 -29 -23 -84 28 -84 32 0 50 17 50 46 0 20 -32 54
-50 54 -3 0 -16 -7 -28 -16z"/>
<path d="M5816 7814 c-19 -18 -21 -55 -4 -72 19 -19 66 -15 78 7 14 28 13 38
-10 61 -24 24 -43 25 -64 4z"/>
<path d="M6402 7823 c-44 -18 -32 -93 16 -93 35 0 52 16 52 52 0 36 -32 56
-68 41z"/>
<path d="M6969 7811 c-20 -16 -22 -23 -14 -47 18 -52 95 -42 95 12 0 20 -32
54 -51 54 -4 0 -17 -9 -30 -19z"/>
<path d="M7552 7814 c-41 -29 -23 -84 28 -84 32 0 50 17 50 46 0 20 -32 54
-50 54 -3 0 -16 -7 -28 -16z"/>
<path d="M8138 7823 c-22 -5 -35 -50 -21 -72 15 -23 64 -27 80 -5 18 25 16 41
-7 64 -20 20 -22 21 -52 13z"/>
<path d="M8700 7810 c-23 -23 -24 -33 -10 -61 12 -22 59 -26 78 -7 19 19 15
66 -7 78 -28 14 -38 13 -61 -10z"/>
<path d="M9279 7811 c-20 -16 -22 -23 -14 -47 18 -52 95 -42 95 12 0 20 -32
54 -51 54 -4 0 -17 -9 -30 -19z"/>
<path d="M9862 7814 c-12 -8 -22 -26 -22 -38 0 -54 77 -64 95 -12 8 24 6 31
-14 47 -28 23 -31 23 -59 3z"/>
<path d="M10438 7819 c-21 -12 -24 -59 -6 -77 19 -19 66 -15 78 7 14 28 13 38
-10 61 -22 22 -37 24 -62 9z"/>
<path d="M11011 7811 c-24 -24 -25 -34 -11 -62 12 -22 59 -26 78 -7 13 13 16
47 4 64 -15 24 -50 26 -71 5z"/>
<path d="M11592 7814 c-41 -29 -23 -84 28 -84 32 0 50 17 50 46 0 20 -32 54
-50 54 -3 0 -16 -7 -28 -16z"/>
<path d="M12172 7814 c-12 -8 -22 -26 -22 -38 0 -54 77 -64 95 -12 8 24 6 31
-14 47 -28 23 -31 23 -59 3z"/>
<path d="M12748 7819 c-21 -12 -24 -59 -6 -77 27 -27 88 -3 88 34 0 17 -36 54
-52 54 -7 0 -21 -5 -30 -11z"/>
<path d="M13320 7810 c-23 -23 -24 -33 -10 -61 12 -22 59 -26 78 -7 17 17 15
54 -4 72 -21 21 -40 20 -64 -4z"/>
<path d="M13902 7814 c-41 -29 -23 -84 28 -84 32 0 50 17 50 46 0 20 -32 54
-50 54 -3 0 -16 -7 -28 -16z"/>
<path d="M14482 7814 c-24 -17 -29 -53 -10 -72 19 -19 66 -15 78 7 14 28 13
38 -10 61 -24 24 -29 24 -58 4z"/>
<path d="M15058 7819 c-21 -12 -24 -59 -6 -77 13 -13 47 -16 64 -4 24 15 26
50 5 71 -23 23 -37 25 -63 10z"/>
<path d="M15630 7810 c-23 -23 -24 -33 -10 -61 12 -22 59 -26 78 -7 17 17 15
54 -4 72 -21 21 -40 20 -64 -4z"/>
<path d="M16212 7814 c-41 -29 -23 -84 28 -84 32 0 50 17 50 46 0 20 -32 54
-50 54 -3 0 -16 -7 -28 -16z"/>
<path d="M16787 7812 c-20 -22 -22 -53 -5 -70 19 -19 66 -15 78 7 14 28 13 38
-10 61 -25 25 -42 25 -63 2z"/>
<path d="M17368 7818 c-24 -20 -28 -44 -12 -67 18 -25 56 -27 78 -5 21 21 20
40 -4 64 -23 23 -40 25 -62 8z"/>
<path d="M17940 7810 c-23 -23 -24 -33 -10 -61 12 -22 59 -26 78 -7 17 17 15
54 -4 72 -21 21 -40 20 -64 -4z"/>
<path d="M18522 7814 c-41 -29 -23 -84 28 -84 32 0 50 17 50 46 0 20 -32 54
-50 54 -3 0 -16 -7 -28 -16z"/>
<path d="M19108 7823 c-22 -5 -35 -50 -21 -72 15 -23 64 -27 80 -5 18 25 16
41 -7 64 -20 20 -22 21 -52 13z"/>
<path d="M322 7238 c-7 -7 -12 -24 -12 -38 0 -31 17 -50 45 -50 28 0 45 19 45
50 0 31 -17 50 -45 50 -12 0 -26 -5 -33 -12z"/>
<path d="M897 7232 c-22 -24 -21 -45 1 -65 37 -34 82 -15 82 33 0 49 -51 68
-83 32z"/>
<path d="M1476 7234 c-31 -30 -9 -84 34 -84 24 0 50 26 50 50 0 24 -26 50 -50
50 -10 0 -26 -7 -34 -16z"/>
<path d="M2056 7237 c-28 -20 -18 -69 16 -81 51 -18 89 42 50 77 -22 20 -42
21 -66 4z"/>
<path d="M2632 7238 c-7 -7 -12 -24 -12 -38 0 -31 17 -50 45 -50 28 0 45 19
45 50 0 31 -17 50 -45 50 -12 0 -26 -5 -33 -12z"/>
<path d="M3207 7232 c-22 -25 -21 -45 3 -67 30 -27 74 -10 78 30 6 49 -48 73
-81 37z"/>
<path d="M3786 7234 c-31 -30 -9 -84 34 -84 24 0 50 26 50 50 0 24 -26 50 -50
50 -10 0 -26 -7 -34 -16z"/>
<path d="M4362 7238 c-7 -7 -12 -24 -12 -38 0 -32 17 -50 45 -50 25 0 55 29
55 52 0 36 -62 62 -88 36z"/>
<path d="M4942 7238 c-7 -7 -12 -24 -12 -38 0 -53 57 -69 86 -25 15 23 15 27
0 50 -18 27 -54 33 -74 13z"/>
<path d="M5517 7232 c-22 -25 -21 -45 3 -67 30 -27 74 -10 78 30 6 49 -48 73
-81 37z"/>
<path d="M6096 7234 c-9 -8 -16 -24 -16 -34 0 -10 7 -26 16 -34 8 -9 24 -16
34 -16 10 0 26 7 34 16 9 8 16 24 16 34 0 10 -7 26 -16 34 -8 9 -24 16 -34 16
-10 0 -26 -7 -34 -16z"/>
<path d="M6672 7238 c-7 -7 -12 -24 -12 -38 0 -32 17 -50 45 -50 25 0 55 29
55 52 0 36 -62 62 -88 36z"/>
<path d="M7244 7225 c-15 -23 -15 -27 0 -50 29 -44 86 -28 86 25 0 53 -57 69
-86 25z"/>
<path d="M7827 7232 c-22 -25 -21 -45 3 -67 30 -27 74 -10 78 30 6 49 -48 73
-81 37z"/>
<path d="M8406 7234 c-9 -8 -16 -24 -16 -34 0 -10 7 -26 16 -34 8 -9 24 -16
34 -16 10 0 26 7 34 16 9 8 16 24 16 34 0 10 -7 26 -16 34 -8 9 -24 16 -34 16
-10 0 -26 -7 -34 -16z"/>
<path d="M8982 7238 c-7 -7 -12 -24 -12 -38 0 -53 57 -69 86 -25 15 23 15 27
0 50 -18 27 -54 33 -74 13z"/>
<path d="M9554 7225 c-15 -23 -15 -27 0 -50 29 -44 86 -28 86 25 0 53 -57 69
-86 25z"/>
<path d="M10137 7232 c-22 -25 -21 -45 3 -67 30 -27 74 -10 78 30 6 49 -48 73
-81 37z"/>
<path d="M10716 7234 c-31 -30 -9 -84 34 -84 24 0 50 26 50 50 0 24 -26 50
-50 50 -10 0 -26 -7 -34 -16z"/>
<path d="M11292 7238 c-7 -7 -12 -24 -12 -38 0 -53 57 -69 86 -25 15 23 15 27
0 50 -18 27 -54 33 -74 13z"/>
<path d="M11864 7225 c-15 -23 -15 -27 0 -50 29 -44 86 -28 86 25 0 53 -57 69
-86 25z"/>
<path d="M12447 7232 c-22 -25 -21 -45 3 -67 30 -27 74 -10 78 30 6 49 -48 73
-81 37z"/>
<path d="M13028 7239 c-25 -14 -24 -65 1 -79 27 -14 47 -13 65 6 44 44 -12
105 -66 73z"/>
<path d="M13602 7238 c-7 -7 -12 -24 -12 -38 0 -53 57 -69 86 -25 15 23 15 27
0 50 -18 27 -54 33 -74 13z"/>
<path d="M14174 7225 c-15 -23 -15 -27 0 -50 29 -44 86 -28 86 25 0 53 -57 69
-86 25z"/>
<path d="M14757 7232 c-22 -25 -21 -45 3 -67 30 -27 74 -10 78 30 6 49 -48 73
-81 37z"/>
<path d="M15338 7239 c-25 -14 -24 -65 1 -79 27 -14 47 -13 65 6 44 44 -12
105 -66 73z"/>
<path d="M15912 7238 c-7 -7 -12 -24 -12 -38 0 -53 57 -69 86 -25 15 23 15 27
0 50 -18 27 -54 33 -74 13z"/>
<path d="M16484 7225 c-15 -23 -15 -27 0 -50 29 -44 86 -28 86 25 0 53 -57 69
-86 25z"/>
<path d="M17067 7232 c-22 -25 -21 -45 3 -67 30 -27 74 -10 78 30 6 49 -48 73
-81 37z"/>
<path d="M17646 7237 c-28 -20 -18 -69 16 -81 51 -18 89 42 50 77 -22 20 -42
21 -66 4z"/>
<path d="M18222 7238 c-7 -7 -12 -24 -12 -38 0 -53 57 -69 86 -25 15 23 15 27
0 50 -18 27 -54 33 -74 13z"/>
<path d="M18794 7225 c-15 -23 -15 -27 0 -50 29 -44 86 -28 86 25 0 53 -57 69
-86 25z"/>
<path d="M30 6650 c-22 -41 13 -85 58 -73 26 6 40 48 25 72 -16 26 -69 26 -83
1z"/>
<path d="M612 6658 c-20 -20 -14 -56 13 -74 23 -15 27 -15 50 0 44 29 28 86
-25 86 -14 0 -31 -5 -38 -12z"/>
<path d="M1192 6658 c-27 -27 -3 -88 34 -88 16 0 54 35 54 51 0 6 -5 19 -10
30 -12 22 -59 26 -78 7z"/>
<path d="M1766 6654 c-21 -21 -20 -40 4 -64 23 -23 40 -25 62 -7 24 19 28 43
12 66 -18 25 -56 27 -78 5z"/>
<path d="M2340 6650 c-14 -26 -5 -57 21 -71 43 -23 92 44 57 79 -20 20 -66 15
-78 -8z"/>
<path d="M2922 6658 c-20 -20 -14 -56 13 -74 23 -15 27 -15 50 0 44 29 28 86
-25 86 -14 0 -31 -5 -38 -12z"/>
<path d="M3502 6658 c-27 -27 -3 -88 34 -88 16 0 54 35 54 51 0 6 -5 19 -10
30 -12 22 -59 26 -78 7z"/>
<path d="M4084 6662 c-50 -34 2 -111 56 -82 23 12 28 58 8 78 -13 13 -47 16
-64 4z"/>
<path d="M4650 6650 c-14 -26 -5 -57 21 -71 43 -23 92 44 57 79 -20 20 -66 15
-78 -8z"/>
<path d="M5232 6658 c-20 -20 -14 -56 13 -74 23 -15 27 -15 50 0 44 29 28 86
-25 86 -14 0 -31 -5 -38 -12z"/>
<path d="M5812 6658 c-27 -27 -3 -88 34 -88 16 0 54 35 54 51 0 6 -5 19 -10
30 -12 22 -59 26 -78 7z"/>
<path d="M6380 6644 c-7 -16 -7 -32 0 -44 24 -44 90 -31 90 18 0 36 -17 52
-52 52 -21 0 -31 -6 -38 -26z"/>
<path d="M6960 6651 c-16 -31 -12 -49 15 -67 23 -15 27 -15 50 0 27 18 33 54
13 74 -19 19 -66 15 -78 -7z"/>
<path d="M7542 6658 c-20 -20 -14 -56 13 -74 23 -15 27 -15 50 0 44 29 28 86
-25 86 -14 0 -31 -5 -38 -12z"/>
<path d="M8122 6658 c-24 -24 -12 -69 21 -81 41 -15 78 33 57 73 -12 23 -58
28 -78 8z"/>
<path d="M8690 6650 c-24 -45 21 -92 66 -71 27 12 33 58 12 79 -20 20 -66 15
-78 -8z"/>
<path d="M9270 6651 c-16 -31 -12 -49 15 -67 23 -15 27 -15 50 0 27 18 33 54
13 74 -19 19 -66 15 -78 -7z"/>
<path d="M9852 6658 c-20 -20 -14 -56 13 -74 23 -15 27 -15 50 0 27 18 31 36
15 67 -12 22 -59 26 -78 7z"/>
<path d="M10432 6658 c-20 -20 -14 -66 9 -79 44 -23 93 26 69 71 -12 23 -58
28 -78 8z"/>
<path d="M11000 6650 c-22 -41 13 -85 58 -73 26 6 40 48 25 72 -16 26 -69 26
-83 1z"/>
<path d="M11582 6658 c-20 -20 -14 -56 13 -74 23 -15 27 -15 50 0 44 29 28 86
-25 86 -14 0 -31 -5 -38 -12z"/>
<path d="M12162 6658 c-20 -20 -14 -56 13 -74 23 -15 27 -15 50 0 27 18 31 36
15 67 -12 22 -59 26 -78 7z"/>
<path d="M12742 6658 c-19 -19 -15 -66 7 -78 11 -5 24 -10 30 -10 16 0 51 38
51 54 0 37 -61 61 -88 34z"/>
<path d="M13310 6650 c-22 -40 17 -89 60 -75 24 7 37 51 23 74 -16 26 -69 26
-83 1z"/>
<path d="M13892 6658 c-20 -20 -14 -56 13 -74 23 -15 27 -15 50 0 44 29 28 86
-25 86 -14 0 -31 -5 -38 -12z"/>
<path d="M14472 6658 c-35 -35 14 -102 57 -79 45 25 33 91 -17 91 -16 0 -33
-5 -40 -12z"/>
<path d="M15052 6658 c-20 -20 -15 -66 8 -78 40 -21 88 16 73 57 -12 33 -57
45 -81 21z"/>
<path d="M15620 6650 c-22 -40 17 -89 60 -75 24 7 37 51 23 74 -16 26 -69 26
-83 1z"/>
<path d="M16202 6658 c-20 -20 -14 -56 13 -74 23 -15 27 -15 50 0 44 29 28 86
-25 86 -14 0 -31 -5 -38 -12z"/>
<path d="M16782 6658 c-18 -18 -14 -53 8 -73 39 -35 96 17 70 65 -12 23 -58
28 -78 8z"/>
<path d="M17356 6649 c-21 -31 3 -79 41 -79 17 0 53 36 53 54 0 43 -68 61 -94
25z"/>
<path d="M17930 6650 c-22 -40 17 -89 60 -75 24 7 37 51 23 74 -16 26 -69 26
-83 1z"/>
<path d="M18512 6658 c-20 -20 -14 -56 13 -74 23 -15 27 -15 50 0 44 29 28 86
-25 86 -14 0 -31 -5 -38 -12z"/>
<path d="M19092 6658 c-24 -24 -12 -69 21 -81 41 -15 78 33 57 73 -12 23 -58
28 -78 8z"/>
<path d="M328 6089 c-21 -12 -24 -59 -6 -77 7 -7 21 -12 33 -12 12 0 26 5 33
12 19 19 15 66 -7 78 -24 12 -31 12 -53 -1z"/>
<path d="M900 6080 c-24 -24 -25 -43 -4 -64 18 -19 55 -21 72 -4 19 19 15 66
-7 78 -28 14 -38 13 -61 -10z"/>
<path d="M1475 6080 c-15 -16 -17 -26 -9 -48 8 -22 15 -27 44 -27 29 0 36 5
44 27 8 22 6 32 -9 48 -10 11 -26 20 -35 20 -9 0 -25 -9 -35 -20z"/>
<path d="M2056 6087 c-22 -16 -18 -65 5 -80 47 -29 101 32 64 73 -21 23 -44
25 -69 7z"/>
<path d="M2638 6088 c-37 -31 -20 -88 27 -88 28 0 56 35 48 59 -7 19 -32 41
-48 41 -6 0 -18 -6 -27 -12z"/>
<path d="M3205 6080 c-24 -27 -13 -68 22 -76 34 -9 57 6 61 42 6 49 -49 72
-83 34z"/>
<path d="M3785 6080 c-15 -16 -17 -26 -9 -48 8 -22 15 -27 44 -27 29 0 36 5
44 27 8 22 6 32 -9 48 -10 11 -26 20 -35 20 -9 0 -25 -9 -35 -20z"/>
<path d="M4368 6089 c-21 -12 -24 -59 -6 -77 27 -27 88 -3 88 34 0 17 -36 54
-52 54 -7 0 -21 -5 -30 -11z"/>
<path d="M4948 6088 c-37 -31 -20 -88 27 -88 28 0 56 35 48 59 -7 19 -32 41
-48 41 -6 0 -18 -6 -27 -12z"/>
<path d="M5515 6080 c-24 -27 -13 -68 22 -76 33 -9 57 6 61 38 6 50 -49 76
-83 38z"/>
<path d="M6097 6082 c-36 -39 -12 -86 40 -80 38 4 55 49 28 78 -23 25 -47 26
-68 2z"/>
<path d="M6678 6089 c-21 -12 -24 -59 -6 -77 27 -27 88 -3 88 34 0 17 -36 54
-52 54 -7 0 -21 -5 -30 -11z"/>
<path d="M7250 6080 c-24 -24 -24 -29 -4 -58 17 -24 53 -29 72 -10 19 19 15
66 -7 78 -28 14 -38 13 -61 -10z"/>
<path d="M7825 6080 c-15 -16 -17 -26 -9 -48 17 -50 94 -39 94 14 0 49 -52 70
-85 34z"/>
<path d="M8406 6084 c-20 -19 -21 -58 -2 -73 25 -21 69 -9 80 21 17 50 -42 89
-78 52z"/>
<path d="M8988 6089 c-21 -12 -24 -59 -6 -77 27 -27 88 -3 88 34 0 17 -36 54
-52 54 -7 0 -21 -5 -30 -11z"/>
<path d="M9560 6080 c-24 -24 -24 -29 -4 -58 17 -24 53 -29 72 -10 19 19 15
66 -7 78 -28 14 -38 13 -61 -10z"/>
<path d="M10135 6080 c-24 -27 -13 -68 22 -76 33 -9 57 6 61 38 6 50 -49 76
-83 38z"/>
<path d="M10717 6082 c-36 -39 -12 -86 40 -80 38 4 55 49 28 78 -23 25 -47 26
-68 2z"/>
<path d="M11298 6089 c-21 -12 -24 -59 -6 -77 18 -18 53 -15 71 6 22 24 21 38
-3 62 -22 22 -37 24 -62 9z"/>
<path d="M11870 6080 c-24 -24 -24 -29 -4 -58 19 -28 58 -28 78 -1 16 23 12
47 -12 67 -22 17 -39 15 -62 -8z"/>
<path d="M12445 6080 c-15 -16 -17 -26 -9 -48 17 -50 94 -39 94 14 0 49 -52
70 -85 34z"/>
<path d="M13027 6082 c-36 -39 -12 -86 40 -80 38 4 55 49 28 78 -23 25 -47 26
-68 2z"/>
<path d="M13608 6089 c-21 -12 -24 -59 -6 -77 19 -19 55 -14 72 10 20 29 20
34 -4 58 -22 22 -37 24 -62 9z"/>
<path d="M14180 6080 c-24 -24 -24 -29 -4 -58 17 -24 53 -29 72 -10 19 19 15
66 -7 78 -28 14 -38 13 -61 -10z"/>
<path d="M14755 6080 c-15 -16 -17 -26 -9 -48 17 -50 94 -39 94 14 0 49 -52
70 -85 34z"/>
<path d="M15336 6084 c-20 -19 -21 -58 -2 -73 25 -21 69 -9 80 21 17 50 -42
89 -78 52z"/>
<path d="M15918 6089 c-21 -12 -24 -59 -6 -77 19 -19 55 -14 72 10 20 29 20
34 -4 58 -22 22 -37 24 -62 9z"/>
<path d="M16490 6080 c-25 -25 -25 -42 -2 -63 22 -20 53 -22 70 -5 19 19 15
66 -7 78 -28 14 -38 13 -61 -10z"/>
<path d="M17065 6080 c-27 -29 -10 -74 28 -78 53 -6 77 46 39 81 -25 22 -45
21 -67 -3z"/>
<path d="M17646 6084 c-20 -19 -21 -58 -2 -73 25 -21 69 -9 80 21 17 50 -42
89 -78 52z"/>
<path d="M18228 6089 c-21 -12 -24 -59 -6 -77 19 -19 55 -14 72 10 20 29 20
34 -4 58 -22 22 -37 24 -62 9z"/>
<path d="M18800 6080 c-24 -24 -25 -43 -4 -64 18 -19 55 -21 72 -4 19 19 15
66 -7 78 -28 14 -38 13 -61 -10z"/>
<path d="M36 5505 c-35 -35 0 -93 48 -81 29 7 45 49 29 75 -14 22 -57 25 -77
6z"/>
<path d="M612 5508 c-18 -18 -15 -52 6 -71 25 -22 45 -21 67 3 27 30 10 74
-30 78 -17 2 -36 -3 -43 -10z"/>
<path d="M1192 5508 c-19 -19 -15 -66 7 -78 11 -5 24 -10 30 -10 16 0 51 38
51 54 0 37 -61 61 -88 34z"/>
<path d="M1765 5496 c-28 -43 18 -91 63 -67 26 14 33 45 15 70 -19 29 -59 27
-78 -3z"/>
<path d="M2346 5505 c-35 -35 0 -93 48 -81 29 7 45 49 29 75 -14 22 -57 25
-77 6z"/>
<path d="M2922 5508 c-28 -28 -3 -88 37 -88 10 0 26 9 36 20 27 30 10 74 -30
78 -17 2 -36 -3 -43 -10z"/>
<path d="M3502 5508 c-19 -19 -15 -66 7 -78 11 -5 24 -10 30 -10 16 0 51 38
51 54 0 37 -61 61 -88 34z"/>
<path d="M4075 5496 c-13 -19 -14 -29 -6 -45 25 -45 91 -33 91 17 0 54 -56 72
-85 28z"/>
<path d="M4656 5505 c-35 -35 0 -93 48 -81 29 7 45 49 29 75 -14 22 -57 25
-77 6z"/>
<path d="M5232 5508 c-18 -18 -15 -52 6 -71 25 -22 45 -21 67 3 27 30 10 74
-30 78 -17 2 -36 -3 -43 -10z"/>
<path d="M5812 5508 c-7 -7 -12 -24 -12 -40 0 -50 66 -62 91 -17 23 43 -44 92
-79 57z"/>
<path d="M6385 5496 c-13 -19 -14 -29 -6 -45 25 -45 91 -33 91 17 0 54 -56 72
-85 28z"/>
<path d="M6966 5505 c-35 -35 0 -93 48 -81 29 7 45 49 29 75 -14 22 -57 25
-77 6z"/>
<path d="M7542 5508 c-28 -28 -3 -88 37 -88 10 0 26 9 36 20 27 30 10 74 -30
78 -17 2 -36 -3 -43 -10z"/>
<path d="M8122 5508 c-20 -20 -14 -66 9 -79 27 -14 65 1 74 31 13 42 -51 80
-83 48z"/>
<path d="M8696 5501 c-35 -39 12 -94 60 -72 27 12 33 58 12 79 -18 18 -53 14
-72 -7z"/>
<path d="M9276 5505 c-35 -35 0 -93 48 -81 29 7 45 49 29 75 -14 22 -57 25
-77 6z"/>
<path d="M9852 5508 c-28 -28 -3 -88 37 -88 22 0 51 30 51 53 0 38 -61 62 -88
35z"/>
<path d="M10432 5508 c-20 -20 -14 -66 9 -79 27 -14 65 1 74 31 13 42 -51 80
-83 48z"/>
<path d="M11006 5501 c-35 -39 12 -94 60 -72 27 12 33 58 12 79 -18 18 -53 14
-72 -7z"/>
<path d="M11581 5501 c-16 -29 -14 -46 9 -66 41 -37 102 17 73 64 -16 25 -69
26 -82 2z"/>
<path d="M12162 5508 c-28 -28 -3 -88 37 -88 22 0 51 30 51 53 0 38 -61 62
-88 35z"/>
<path d="M12742 5508 c-7 -7 -12 -24 -12 -40 0 -50 66 -62 91 -17 23 43 -44
92 -79 57z"/>
<path d="M13315 5496 c-13 -19 -14 -29 -6 -45 25 -45 91 -33 91 17 0 54 -56
72 -85 28z"/>
<path d="M13890 5501 c-15 -28 -12 -46 8 -64 24 -22 45 -21 65 1 20 22 22 53
5 70 -19 19 -66 15 -78 -7z"/>
<path d="M14472 5508 c-28 -28 -3 -88 37 -88 22 0 51 30 51 53 0 38 -61 62
-88 35z"/>
<path d="M15052 5508 c-7 -7 -12 -24 -12 -40 0 -50 66 -62 91 -17 23 43 -44
92 -79 57z"/>
<path d="M15626 5504 c-21 -21 -20 -40 4 -64 23 -23 33 -24 61 -10 22 12 26
59 7 78 -17 17 -54 15 -72 -4z"/>
<path d="M16201 5501 c-16 -29 -14 -46 9 -66 41 -37 102 17 73 64 -16 25 -69
26 -82 2z"/>
<path d="M16782 5508 c-28 -28 -3 -88 37 -88 22 0 51 30 51 53 0 38 -61 62
-88 35z"/>
<path d="M17357 5499 c-18 -25 -11 -56 15 -70 45 -24 91 24 63 67 -19 30 -59
32 -78 3z"/>
<path d="M17936 5504 c-21 -21 -20 -40 4 -64 23 -23 33 -24 61 -10 22 12 26
59 7 78 -17 17 -54 15 -72 -4z"/>
<path d="M18510 5501 c-15 -28 -12 -46 8 -64 24 -22 45 -21 65 1 20 22 22 53
5 70 -19 19 -66 15 -78 -7z"/>
<path d="M19092 5508 c-28 -28 -3 -88 37 -88 22 0 51 30 51 53 0 38 -61 62
-88 35z"/>
<path d="M328 4938 c-24 -20 -28 -44 -12 -67 17 -23 53 -28 72 -9 19 19 15 66
-7 78 -25 13 -34 13 -53 -2z"/>
<path d="M900 4930 c-23 -23 -24 -33 -10 -61 12 -22 59 -26 78 -7 18 18 15 53
-6 71 -24 22 -38 21 -62 -3z"/>
<path d="M1482 4934 c-41 -29 -23 -84 28 -84 32 0 50 17 50 46 0 20 -32 54
-50 54 -3 0 -16 -7 -28 -16z"/>
<path d="M2062 4934 c-24 -17 -29 -53 -10 -72 19 -19 66 -15 78 7 14 28 13 38
-10 61 -24 24 -29 24 -58 4z"/>
<path d="M2638 4938 c-52 -42 4 -115 61 -79 20 13 17 62 -5 78 -22 16 -36 16
-56 1z"/>
<path d="M3210 4930 c-23 -23 -24 -33 -10 -61 12 -22 59 -26 78 -7 18 18 15
53 -6 71 -24 22 -38 21 -62 -3z"/>
<path d="M3792 4934 c-41 -29 -23 -84 28 -84 32 0 50 17 50 46 0 20 -32 54
-50 54 -3 0 -16 -7 -28 -16z"/>
<path d="M4367 4932 c-20 -22 -22 -53 -5 -70 19 -19 66 -15 78 7 14 28 13 38
-10 61 -25 25 -42 25 -63 2z"/>
<path d="M4948 4938 c-37 -31 -20 -88 27 -88 28 0 56 35 48 59 -7 19 -32 41
-48 41 -6 0 -18 -6 -27 -12z"/>
<path d="M5520 4930 c-23 -23 -24 -33 -10 -61 12 -22 59 -26 78 -7 19 19 14
55 -10 72 -29 20 -34 20 -58 -4z"/>
<path d="M6102 4934 c-41 -29 -23 -84 28 -84 32 0 50 17 50 46 0 20 -32 54
-50 54 -3 0 -16 -7 -28 -16z"/>
<path d="M6676 4934 c-19 -18 -21 -55 -4 -72 19 -19 66 -15 78 7 14 28 13 38
-10 61 -24 24 -43 25 -64 4z"/>
<path d="M7258 4938 c-38 -31 -25 -88 20 -88 35 0 52 16 52 52 0 40 -41 60
-72 36z"/>
<path d="M7830 4930 c-23 -23 -24 -33 -10 -61 12 -22 59 -26 78 -7 19 19 14
55 -10 72 -29 20 -34 20 -58 -4z"/>
<path d="M8412 4934 c-41 -29 -23 -84 28 -84 32 0 50 17 50 46 0 20 -32 54
-50 54 -3 0 -16 -7 -28 -16z"/>
<path d="M8987 4932 c-20 -22 -22 -53 -5 -70 19 -19 66 -15 78 7 14 28 13 38
-10 61 -25 25 -42 25 -63 2z"/>
<path d="M9572 4943 c-44 -18 -32 -93 16 -93 35 0 52 16 52 52 0 36 -32 56
-68 41z"/>
<path d="M10140 4930 c-23 -23 -24 -33 -10 -61 12 -22 59 -26 78 -7 19 19 14
55 -10 72 -29 20 -34 20 -58 -4z"/>
<path d="M10722 4934 c-41 -29 -23 -84 28 -84 32 0 50 17 50 46 0 20 -32 54
-50 54 -3 0 -16 -7 -28 -16z"/>
<path d="M11308 4943 c-22 -5 -35 -50 -21 -72 15 -23 64 -27 80 -5 18 25 16
41 -7 64 -20 20 -22 21 -52 13z"/>
<path d="M11870 4930 c-24 -24 -25 -43 -4 -64 22 -22 60 -20 78 5 16 23 12 47
-12 67 -22 17 -39 15 -62 -8z"/>
<path d="M12449 4931 c-20 -16 -22 -23 -14 -47 18 -52 95 -42 95 12 0 20 -32
54 -51 54 -4 0 -17 -9 -30 -19z"/>
<path d="M13032 4934 c-12 -8 -22 -26 -22 -38 0 -54 77 -64 95 -12 8 24 6 31
-14 47 -28 23 -31 23 -59 3z"/>
<path d="M13606 4934 c-19 -18 -21 -55 -4 -72 19 -19 66 -15 78 7 14 28 13 38
-10 61 -24 24 -43 25 -64 4z"/>
<path d="M14180 4930 c-23 -23 -24 -33 -10 -61 12 -22 59 -26 78 -7 19 19 15
66 -7 78 -28 14 -38 13 -61 -10z"/>
<path d="M14760 4930 c-23 -23 -24 -33 -10 -61 12 -22 59 -26 78 -7 19 19 14
55 -10 72 -29 20 -34 20 -58 -4z"/>
<path d="M15342 4934 c-41 -29 -23 -84 28 -84 32 0 50 17 50 46 0 20 -32 54
-50 54 -3 0 -16 -7 -28 -16z"/>
<path d="M15918 4939 c-21 -12 -24 -59 -6 -77 7 -7 25 -12 40 -12 50 0 60 76
12 94 -21 8 -26 7 -46 -5z"/>
<path d="M16491 4931 c-24 -24 -25 -34 -11 -62 12 -22 59 -26 78 -7 13 13 16
47 4 64 -15 24 -50 26 -71 5z"/>
<path d="M17070 4930 c-23 -23 -24 -33 -10 -61 12 -22 59 -26 78 -7 19 19 14
55 -10 72 -29 20 -34 20 -58 -4z"/>
<path d="M17652 4934 c-12 -8 -22 -26 -22 -38 0 -54 77 -64 95 -12 8 24 6 31
-14 47 -28 23 -31 23 -59 3z"/>
<path d="M18228 4939 c-21 -12 -24 -59 -6 -77 19 -19 66 -15 78 7 14 28 13 38
-10 61 -22 22 -37 24 -62 9z"/>
<path d="M18800 4930 c-23 -23 -24 -33 -10 -61 12 -22 59 -26 78 -7 18 18 15
53 -6 71 -24 22 -38 21 -62 -3z"/>
<path d="M37 4352 c-22 -25 -21 -45 3 -67 30 -27 74 -10 78 30 6 49 -48 73
-81 37z"/>
<path d="M616 4354 c-31 -30 -9 -84 34 -84 24 0 50 26 50 50 0 24 -26 50 -50
50 -10 0 -26 -7 -34 -16z"/>
<path d="M1192 4358 c-15 -15 -15 -61 0 -76 27 -27 88 0 88 40 0 36 -62 62
-88 36z"/>
<path d="M1764 4345 c-15 -23 -15 -27 0 -50 29 -44 86 -28 86 25 0 53 -57 69
-86 25z"/>
<path d="M2347 4352 c-22 -24 -21 -45 1 -65 37 -34 82 -15 82 33 0 49 -51 68
-83 32z"/>
<path d="M2926 4354 c-9 -8 -16 -24 -16 -34 0 -10 7 -26 16 -34 8 -9 24 -16
34 -16 10 0 26 7 34 16 9 8 16 24 16 34 0 10 -7 26 -16 34 -8 9 -24 16 -34 16
-10 0 -26 -7 -34 -16z"/>
<path d="M3502 4358 c-7 -7 -12 -24 -12 -38 0 -32 17 -50 45 -50 25 0 55 29
55 52 0 36 -62 62 -88 36z"/>
<path d="M4074 4345 c-15 -23 -15 -27 0 -50 29 -44 86 -28 86 25 0 53 -57 69
-86 25z"/>
<path d="M4657 4352 c-22 -24 -21 -45 1 -65 23 -21 46 -22 66 -1 30 30 9 84
-33 84 -10 0 -25 -8 -34 -18z"/>
<path d="M5236 4354 c-31 -30 -9 -84 34 -84 24 0 50 26 50 50 0 24 -26 50 -50
50 -10 0 -26 -7 -34 -16z"/>
<path d="M5812 4358 c-7 -7 -12 -24 -12 -38 0 -53 57 -69 86 -25 15 23 15 27
0 50 -18 27 -54 33 -74 13z"/>
<path d="M6384 4345 c-15 -23 -15 -27 0 -50 29 -44 86 -28 86 25 0 53 -57 69
-86 25z"/>
<path d="M6966 4354 c-31 -30 -9 -84 34 -84 24 0 50 26 50 50 0 24 -26 50 -50
50 -10 0 -26 -7 -34 -16z"/>
<path d="M7546 4354 c-31 -30 -9 -84 34 -84 24 0 50 26 50 50 0 24 -26 50 -50
50 -10 0 -26 -7 -34 -16z"/>
<path d="M8122 4358 c-7 -7 -12 -24 -12 -38 0 -53 57 -69 86 -25 15 23 15 27
0 50 -18 27 -54 33 -74 13z"/>
<path d="M8694 4345 c-15 -23 -15 -27 0 -50 29 -44 86 -28 86 25 0 53 -57 69
-86 25z"/>
<path d="M9276 4354 c-9 -8 -16 -24 -16 -34 0 -22 26 -50 46 -50 32 0 54 21
54 50 0 45 -52 66 -84 34z"/>
<path d="M9858 4359 c-25 -14 -24 -65 1 -79 27 -14 47 -13 65 6 44 44 -12 105
-66 73z"/>
<path d="M10432 4358 c-7 -7 -12 -24 -12 -38 0 -53 57 -69 86 -25 15 23 15 27
0 50 -18 27 -54 33 -74 13z"/>
<path d="M11004 4345 c-15 -23 -15 -27 0 -50 29 -44 86 -28 86 25 0 53 -57 69
-86 25z"/>
<path d="M11586 4354 c-31 -30 -9 -84 34 -84 24 0 50 26 50 50 0 24 -26 50
-50 50 -10 0 -26 -7 -34 -16z"/>
<path d="M12166 4354 c-31 -30 -9 -84 34 -84 24 0 50 26 50 50 0 24 -26 50
-50 50 -10 0 -26 -7 -34 -16z"/>
<path d="M12742 4358 c-7 -7 -12 -24 -12 -38 0 -53 57 -69 86 -25 15 23 15 27
0 50 -18 27 -54 33 -74 13z"/>
<path d="M13314 4345 c-15 -23 -15 -27 0 -50 29 -44 86 -28 86 25 0 53 -57 69
-86 25z"/>
<path d="M13896 4354 c-31 -30 -9 -84 34 -84 24 0 50 26 50 50 0 24 -26 50
-50 50 -10 0 -26 -7 -34 -16z"/>
<path d="M14476 4354 c-30 -30 -9 -84 33 -84 21 0 51 30 51 52 0 19 -32 48
-53 48 -8 0 -23 -7 -31 -16z"/>
<path d="M15052 4358 c-7 -7 -12 -24 -12 -38 0 -53 57 -69 86 -25 15 23 15 27
0 50 -18 27 -54 33 -74 13z"/>
<path d="M15627 4352 c-22 -24 -21 -45 1 -65 37 -34 82 -15 82 33 0 49 -51 68
-83 32z"/>
<path d="M16206 4354 c-31 -30 -9 -84 34 -84 24 0 50 26 50 50 0 24 -26 50
-50 50 -10 0 -26 -7 -34 -16z"/>
<path d="M16782 4358 c-7 -7 -12 -24 -12 -38 0 -32 17 -50 45 -50 25 0 55 29
55 52 0 36 -62 62 -88 36z"/>
<path d="M17362 4358 c-7 -7 -12 -24 -12 -38 0 -53 57 -69 86 -25 15 23 15 27
0 50 -18 27 -54 33 -74 13z"/>
<path d="M17937 4352 c-22 -24 -21 -45 1 -65 37 -34 82 -15 82 33 0 49 -51 68
-83 32z"/>
<path d="M18516 4354 c-31 -30 -9 -84 34 -84 24 0 50 26 50 50 0 24 -26 50
-50 50 -10 0 -26 -7 -34 -16z"/>
<path d="M19096 4357 c-28 -20 -18 -69 16 -81 51 -18 89 42 50 77 -22 20 -42
21 -66 4z"/>
<path d="M317 3769 c-30 -42 12 -92 59 -70 27 12 33 58 12 79 -19 19 -55 14
-71 -9z"/>
<path d="M890 3770 c-15 -28 -4 -59 26 -72 19 -9 28 -8 44 7 22 20 26 55 8 73
-20 20 -66 15 -78 -8z"/>
<path d="M1472 3778 c-20 -20 -14 -56 13 -74 23 -15 27 -15 50 0 44 29 28 86
-25 86 -14 0 -31 -5 -38 -12z"/>
<path d="M2052 3778 c-35 -35 14 -102 57 -79 45 25 33 91 -17 91 -16 0 -33 -5
-40 -12z"/>
<path d="M2627 3769 c-30 -42 12 -92 59 -70 23 10 29 27 24 61 -5 35 -61 41
-83 9z"/>
<path d="M3200 3770 c-15 -28 -4 -59 26 -72 19 -9 28 -8 44 7 22 20 26 55 8
73 -20 20 -66 15 -78 -8z"/>
<path d="M3782 3778 c-20 -20 -14 -56 13 -74 23 -15 27 -15 50 0 44 29 28 86
-25 86 -14 0 -31 -5 -38 -12z"/>
<path d="M4362 3778 c-18 -18 -14 -53 8 -73 39 -35 96 17 70 65 -12 23 -58 28
-78 8z"/>
<path d="M4936 3774 c-20 -53 13 -97 59 -76 49 22 30 92 -24 92 -17 0 -31 -7
-35 -16z"/>
<path d="M5510 3770 c-14 -26 -5 -57 21 -71 43 -23 92 44 57 79 -20 20 -66 15
-78 -8z"/>
<path d="M6092 3778 c-20 -20 -14 -56 13 -74 23 -15 27 -15 50 0 44 29 28 86
-25 86 -14 0 -31 -5 -38 -12z"/>
<path d="M6672 3778 c-27 -27 -3 -88 34 -88 16 0 54 35 54 51 0 6 -5 19 -10
30 -12 22 -59 26 -78 7z"/>
<path d="M7241 3768 c-18 -49 20 -90 65 -69 27 12 33 58 12 79 -21 21 -68 15
-77 -10z"/>
<path d="M7820 3770 c-14 -26 -5 -57 21 -71 43 -23 92 44 57 79 -20 20 -66 15
-78 -8z"/>
<path d="M8402 3778 c-20 -20 -14 -56 13 -74 23 -15 27 -15 50 0 44 29 28 86
-25 86 -14 0 -31 -5 -38 -12z"/>
<path d="M8982 3778 c-18 -18 -14 -53 8 -73 39 -35 96 17 70 65 -12 23 -58 28
-78 8z"/>
<path d="M9550 3764 c-18 -46 26 -88 68 -65 46 25 25 91 -29 91 -22 0 -32 -6
-39 -26z"/>
<path d="M10130 3770 c-14 -26 -5 -57 21 -71 43 -23 92 44 57 79 -20 20 -66
15 -78 -8z"/>
<path d="M10712 3778 c-20 -20 -14 -56 13 -74 23 -15 27 -15 50 0 44 29 28 86
-25 86 -14 0 -31 -5 -38 -12z"/>
<path d="M11292 3778 c-24 -24 -12 -69 21 -81 41 -15 78 33 57 73 -12 23 -58
28 -78 8z"/>
<path d="M11866 3774 c-21 -21 -20 -40 4 -64 23 -23 40 -25 62 -7 24 19 28 43
12 66 -18 25 -56 27 -78 5z"/>
<path d="M12440 3771 c-16 -31 -12 -49 15 -67 23 -15 27 -15 50 0 27 18 33 54
13 74 -19 19 -66 15 -78 -7z"/>
<path d="M13022 3778 c-20 -20 -14 -56 13 -74 23 -15 27 -15 50 0 27 18 31 36
15 67 -12 22 -59 26 -78 7z"/>
<path d="M13602 3778 c-24 -24 -12 -69 21 -81 41 -15 78 33 57 73 -12 23 -58
28 -78 8z"/>
<path d="M14170 3770 c-24 -45 21 -92 66 -71 27 12 33 58 12 79 -20 20 -66 15
-78 -8z"/>
<path d="M14750 3770 c-14 -26 -5 -57 21 -71 43 -23 92 44 57 79 -20 20 -66
15 -78 -8z"/>
<path d="M15332 3778 c-20 -20 -14 -56 13 -74 23 -15 27 -15 50 0 44 29 28 86
-25 86 -14 0 -31 -5 -38 -12z"/>
<path d="M15912 3778 c-34 -34 2 -97 48 -83 51 16 44 95 -8 95 -15 0 -33 -5
-40 -12z"/>
<path d="M16480 3770 c-22 -41 13 -85 58 -73 26 6 40 48 25 72 -16 26 -69 26
-83 1z"/>
<path d="M17060 3771 c-16 -31 -12 -49 15 -67 23 -15 27 -15 50 0 27 18 33 54
13 74 -19 19 -66 15 -78 -7z"/>
<path d="M17642 3778 c-20 -20 -14 -56 13 -74 23 -15 27 -15 50 0 27 18 31 36
15 67 -12 22 -59 26 -78 7z"/>
<path d="M18222 3778 c-20 -20 -14 -66 9 -79 44 -23 93 26 69 71 -12 23 -58
28 -78 8z"/>
<path d="M18790 3770 c-15 -28 -4 -59 26 -72 19 -9 28 -8 44 7 22 20 26 55 8
73 -20 20 -66 15 -78 -8z"/>
<path d="M35 3200 c-24 -27 -13 -68 22 -76 33 -9 57 6 61 38 6 50 -49 76 -83
38z"/>
<path d="M617 3202 c-36 -39 -12 -86 40 -80 38 4 55 49 28 78 -23 25 -47 26
-68 2z"/>
<path d="M1198 3209 c-21 -12 -24 -59 -6 -77 27 -27 88 -3 88 34 0 17 -36 54
-52 54 -7 0 -21 -5 -30 -11z"/>
<path d="M1770 3200 c-24 -24 -24 -29 -4 -58 19 -28 58 -28 78 -1 16 23 12 47
-12 67 -22 17 -39 15 -62 -8z"/>
<path d="M2345 3200 c-24 -27 -13 -68 22 -76 33 -9 57 6 61 38 6 50 -49 76
-83 38z"/>
<path d="M2926 3204 c-20 -19 -21 -58 -2 -73 25 -21 69 -9 80 21 17 50 -42 89
-78 52z"/>
<path d="M3508 3209 c-21 -12 -24 -59 -6 -77 27 -27 88 -3 88 34 0 17 -36 54
-52 54 -7 0 -21 -5 -30 -11z"/>
<path d="M4080 3200 c-24 -24 -24 -29 -4 -58 17 -24 53 -29 72 -10 19 19 15
66 -7 78 -28 14 -38 13 -61 -10z"/>
<path d="M4655 3200 c-24 -27 -13 -68 22 -76 33 -9 57 6 61 38 6 50 -49 76
-83 38z"/>
<path d="M5237 3202 c-36 -39 -12 -86 40 -80 38 4 55 49 28 78 -23 25 -47 26
-68 2z"/>
<path d="M5818 3209 c-21 -12 -24 -59 -6 -77 19 -19 55 -14 72 10 20 29 20 34
-4 58 -22 22 -37 24 -62 9z"/>
<path d="M6390 3200 c-24 -24 -24 -29 -4 -58 17 -24 53 -29 72 -10 19 19 15
66 -7 78 -28 14 -38 13 -61 -10z"/>
<path d="M6965 3200 c-24 -27 -13 -68 22 -76 33 -9 57 6 61 38 6 50 -49 76
-83 38z"/>
<path d="M7546 3204 c-20 -19 -21 -58 -2 -73 25 -21 69 -9 80 21 17 50 -42 89
-78 52z"/>
<path d="M8128 3209 c-21 -12 -24 -59 -6 -77 18 -18 53 -15 71 6 22 24 21 38
-3 62 -22 22 -37 24 -62 9z"/>
<path d="M8700 3200 c-25 -25 -25 -42 -2 -63 22 -20 53 -22 70 -5 19 19 15 66
-7 78 -28 14 -38 13 -61 -10z"/>
<path d="M9275 3200 c-24 -27 -13 -68 22 -76 33 -9 57 6 61 38 6 50 -49 76
-83 38z"/>
<path d="M9855 3204 c-19 -20 -16 -63 6 -77 26 -16 68 0 75 29 12 48 -46 83
-81 48z"/>
<path d="M10438 3209 c-21 -12 -24 -59 -6 -77 18 -18 53 -15 71 6 22 24 21 38
-3 62 -22 22 -37 24 -62 9z"/>
<path d="M11010 3200 c-25 -25 -25 -42 -2 -63 22 -20 53 -22 70 -5 19 19 15
66 -7 78 -28 14 -38 13 -61 -10z"/>
<path d="M11585 3200 c-15 -16 -17 -26 -9 -48 17 -50 94 -39 94 14 0 49 -52
70 -85 34z"/>
<path d="M12165 3204 c-19 -20 -16 -63 6 -77 26 -16 68 0 75 29 12 48 -46 83
-81 48z"/>
<path d="M12748 3209 c-21 -12 -24 -59 -6 -77 19 -19 55 -14 72 10 20 29 20
34 -4 58 -22 22 -37 24 -62 9z"/>
<path d="M13320 3200 c-24 -24 -24 -29 -4 -58 17 -24 53 -29 72 -10 19 19 15
66 -7 78 -28 14 -38 13 -61 -10z"/>
<path d="M13895 3200 c-27 -29 -10 -74 28 -78 53 -6 77 46 39 81 -25 22 -45
21 -67 -3z"/>
<path d="M14475 3204 c-19 -20 -16 -63 6 -77 26 -16 68 0 75 29 12 48 -46 83
-81 48z"/>
<path d="M15058 3209 c-21 -12 -24 -59 -6 -77 19 -19 55 -14 72 10 20 29 20
34 -4 58 -22 22 -37 24 -62 9z"/>
<path d="M15630 3200 c-24 -24 -25 -43 -4 -64 18 -19 55 -21 72 -4 19 19 15
66 -7 78 -28 14 -38 13 -61 -10z"/>
<path d="M16205 3200 c-15 -16 -17 -26 -9 -48 17 -50 94 -39 94 14 0 49 -52
70 -85 34z"/>
<path d="M16785 3204 c-19 -20 -16 -63 6 -77 26 -16 68 0 75 29 12 48 -46 83
-81 48z"/>
<path d="M17368 3208 c-24 -20 -28 -44 -12 -67 20 -27 59 -27 78 1 20 29 20
34 -4 58 -23 23 -40 25 -62 8z"/>
<path d="M17940 3200 c-24 -24 -25 -43 -4 -64 18 -19 55 -21 72 -4 19 19 15
66 -7 78 -28 14 -38 13 -61 -10z"/>
<path d="M18515 3200 c-27 -29 -10 -74 28 -78 53 -6 77 46 39 81 -25 22 -45
21 -67 -3z"/>
<path d="M19095 3204 c-19 -20 -16 -63 6 -77 26 -16 68 0 75 29 12 48 -46 83
-81 48z"/>
<path d="M322 2628 c-20 -20 -14 -66 9 -79 33 -17 69 3 69 39 0 33 -16 52 -45
52 -12 0 -26 -5 -33 -12z"/>
<path d="M896 2624 c-21 -21 -20 -40 4 -64 23 -23 33 -24 61 -10 22 12 26 59
7 78 -17 17 -54 15 -72 -4z"/>
<path d="M1471 2621 c-16 -28 -14 -46 7 -64 25 -22 45 -21 67 3 15 16 17 26 9
48 -12 35 -67 44 -83 13z"/>
<path d="M2051 2626 c-21 -25 -9 -69 21 -80 50 -17 89 42 52 78 -19 20 -58 21
-73 2z"/>
<path d="M2627 2619 c-29 -41 12 -92 58 -71 46 21 31 92 -20 92 -13 0 -30 -9
-38 -21z"/>
<path d="M3206 2624 c-22 -21 -20 -47 4 -69 44 -40 107 25 69 71 -15 19 -54
18 -73 -2z"/>
<path d="M3781 2621 c-16 -28 -14 -46 7 -64 25 -22 45 -21 67 3 15 16 17 26 9
48 -12 35 -67 44 -83 13z"/>
<path d="M4362 2628 c-19 -19 -15 -66 7 -78 11 -5 24 -10 30 -10 16 0 51 38
51 54 0 37 -61 61 -88 34z"/>
<path d="M4937 2619 c-29 -41 12 -92 58 -71 46 21 31 92 -20 92 -13 0 -30 -9
-38 -21z"/>
<path d="M5516 2625 c-35 -35 0 -93 48 -81 29 7 45 49 29 75 -14 22 -57 25
-77 6z"/>
<path d="M6092 2628 c-18 -18 -15 -52 6 -71 25 -22 45 -21 67 3 27 30 10 74
-30 78 -17 2 -36 -3 -43 -10z"/>
<path d="M6672 2628 c-19 -19 -15 -66 7 -78 11 -5 24 -10 30 -10 16 0 51 38
51 54 0 37 -61 61 -88 34z"/>
<path d="M7245 2616 c-13 -19 -14 -29 -6 -45 25 -45 91 -33 91 17 0 54 -56 72
-85 28z"/>
<path d="M7821 2621 c-16 -29 -14 -46 9 -66 41 -37 102 17 73 64 -16 25 -69
26 -82 2z"/>
<path d="M8402 2628 c-28 -28 -3 -88 37 -88 10 0 26 9 36 20 27 30 10 74 -30
78 -17 2 -36 -3 -43 -10z"/>
<path d="M8982 2628 c-19 -19 -15 -66 7 -78 11 -5 24 -10 30 -10 16 0 51 38
51 54 0 37 -61 61 -88 34z"/>
<path d="M9555 2616 c-13 -19 -14 -29 -6 -45 25 -45 91 -33 91 17 0 54 -56 72
-85 28z"/>
<path d="M10136 2625 c-35 -35 0 -93 48 -81 29 7 45 49 29 75 -14 22 -57 25
-77 6z"/>
<path d="M10712 2628 c-18 -18 -15 -52 6 -71 25 -22 45 -21 67 3 27 30 10 74
-30 78 -17 2 -36 -3 -43 -10z"/>
<path d="M11292 2628 c-20 -20 -14 -66 9 -79 27 -14 65 1 74 31 13 42 -51 80
-83 48z"/>
<path d="M11865 2616 c-28 -43 18 -91 63 -67 26 14 33 45 15 70 -19 29 -59 27
-78 -3z"/>
<path d="M12441 2621 c-16 -29 -14 -46 9 -66 41 -37 102 17 73 64 -16 25 -69
26 -82 2z"/>
<path d="M13022 2628 c-18 -18 -15 -52 6 -71 25 -22 45 -21 67 3 27 30 10 74
-30 78 -17 2 -36 -3 -43 -10z"/>
<path d="M13602 2628 c-7 -7 -12 -24 -12 -40 0 -50 66 -62 91 -17 23 43 -44
92 -79 57z"/>
<path d="M14175 2616 c-13 -19 -14 -29 -6 -45 25 -45 91 -33 91 17 0 54 -56
72 -85 28z"/>
<path d="M14751 2621 c-16 -29 -14 -46 9 -66 41 -37 102 17 73 64 -16 25 -69
26 -82 2z"/>
<path d="M15332 2628 c-28 -28 -3 -88 37 -88 10 0 26 9 36 20 27 30 10 74 -30
78 -17 2 -36 -3 -43 -10z"/>
<path d="M15912 2628 c-7 -7 -12 -24 -12 -40 0 -50 66 -62 91 -17 23 43 -44
92 -79 57z"/>
<path d="M16486 2621 c-35 -39 12 -94 60 -72 27 12 33 58 12 79 -18 18 -53 14
-72 -7z"/>
<path d="M17060 2621 c-15 -28 -12 -46 8 -64 24 -22 45 -21 65 1 20 22 22 53
5 70 -19 19 -66 15 -78 -7z"/>
<path d="M17642 2628 c-28 -28 -3 -88 37 -88 10 0 26 9 36 20 27 30 10 74 -30
78 -17 2 -36 -3 -43 -10z"/>
<path d="M18222 2628 c-7 -7 -12 -24 -12 -40 0 -50 66 -62 91 -17 23 43 -44
92 -79 57z"/>
<path d="M18796 2624 c-21 -21 -20 -40 4 -64 23 -23 33 -24 61 -10 22 12 26
59 7 78 -17 17 -54 15 -72 -4z"/>
<path d="M41 2051 c-24 -24 -25 -34 -11 -62 12 -22 59 -26 78 -7 13 13 16 47
4 64 -15 24 -50 26 -71 5z"/>
<path d="M622 2054 c-41 -29 -23 -84 28 -84 32 0 50 17 50 46 0 20 -32 54 -50
54 -3 0 -16 -7 -28 -16z"/>
<path d="M1196 2054 c-19 -18 -21 -55 -4 -72 19 -19 66 -15 78 7 14 28 13 38
-10 61 -24 24 -43 25 -64 4z"/>
<path d="M1770 2050 c-24 -24 -25 -43 -4 -64 22 -22 60 -20 78 5 16 23 12 47
-12 67 -22 17 -39 15 -62 -8z"/>
<path d="M2350 2050 c-23 -23 -24 -33 -10 -61 12 -22 59 -26 78 -7 19 19 14
55 -10 72 -29 20 -34 20 -58 -4z"/>
<path d="M2932 2054 c-41 -29 -23 -84 28 -84 32 0 50 17 50 46 0 20 -32 54
-50 54 -3 0 -16 -7 -28 -16z"/>
<path d="M3506 2054 c-19 -18 -21 -55 -4 -72 19 -19 66 -15 78 7 14 28 13 38
-10 61 -24 24 -43 25 -64 4z"/>
<path d="M4079 2049 c-21 -21 -19 -56 5 -71 17 -12 51 -9 64 4 19 19 15 66 -7
78 -28 14 -38 13 -62 -11z"/>
<path d="M4660 2050 c-23 -23 -24 -33 -10 -61 12 -22 59 -26 78 -7 19 19 14
55 -10 72 -29 20 -34 20 -58 -4z"/>
<path d="M5242 2054 c-41 -29 -23 -84 28 -84 32 0 50 17 50 46 0 20 -32 54
-50 54 -3 0 -16 -7 -28 -16z"/>
<path d="M5816 2054 c-19 -18 -21 -55 -4 -72 19 -19 66 -15 78 7 14 28 13 38
-10 61 -24 24 -43 25 -64 4z"/>
<path d="M6402 2063 c-44 -18 -32 -93 16 -93 35 0 52 16 52 52 0 36 -32 56
-68 41z"/>
<path d="M6969 2051 c-20 -16 -22 -23 -14 -47 18 -52 95 -42 95 12 0 20 -32
54 -51 54 -4 0 -17 -9 -30 -19z"/>
<path d="M7552 2054 c-41 -29 -23 -84 28 -84 32 0 50 17 50 46 0 20 -32 54
-50 54 -3 0 -16 -7 -28 -16z"/>
<path d="M8138 2063 c-22 -5 -35 -50 -21 -72 15 -23 64 -27 80 -5 18 25 16 41
-7 64 -20 20 -22 21 -52 13z"/>
<path d="M8700 2050 c-23 -23 -24 -33 -10 -61 12 -22 59 -26 78 -7 19 19 15
66 -7 78 -28 14 -38 13 -61 -10z"/>
<path d="M9279 2051 c-20 -16 -22 -23 -14 -47 18 -52 95 -42 95 12 0 20 -32
54 -51 54 -4 0 -17 -9 -30 -19z"/>
<path d="M9862 2054 c-12 -8 -22 -26 -22 -38 0 -54 77 -64 95 -12 8 24 6 31
-14 47 -28 23 -31 23 -59 3z"/>
<path d="M10438 2059 c-21 -12 -24 -59 -6 -77 19 -19 66 -15 78 7 14 28 13 38
-10 61 -22 22 -37 24 -62 9z"/>
<path d="M11011 2051 c-24 -24 -25 -34 -11 -62 12 -22 59 -26 78 -7 13 13 16
47 4 64 -15 24 -50 26 -71 5z"/>
<path d="M11592 2054 c-41 -29 -23 -84 28 -84 32 0 50 17 50 46 0 20 -32 54
-50 54 -3 0 -16 -7 -28 -16z"/>
<path d="M12172 2054 c-12 -8 -22 -26 -22 -38 0 -54 77 -64 95 -12 8 24 6 31
-14 47 -28 23 -31 23 -59 3z"/>
<path d="M12748 2059 c-21 -12 -24 -59 -6 -77 27 -27 88 -3 88 34 0 17 -36 54
-52 54 -7 0 -21 -5 -30 -11z"/>
<path d="M13320 2050 c-23 -23 -24 -33 -10 -61 12 -22 59 -26 78 -7 17 17 15
54 -4 72 -21 21 -40 20 -64 -4z"/>
<path d="M13902 2054 c-41 -29 -23 -84 28 -84 32 0 50 17 50 46 0 20 -32 54
-50 54 -3 0 -16 -7 -28 -16z"/>
<path d="M14482 2054 c-24 -17 -29 -53 -10 -72 19 -19 66 -15 78 7 14 28 13
38 -10 61 -24 24 -29 24 -58 4z"/>
<path d="M15058 2059 c-21 -12 -24 -59 -6 -77 13 -13 47 -16 64 -4 24 15 26
50 5 71 -23 23 -37 25 -63 10z"/>
<path d="M15630 2050 c-23 -23 -24 -33 -10 -61 12 -22 59 -26 78 -7 17 17 15
54 -4 72 -21 21 -40 20 -64 -4z"/>
<path d="M16212 2054 c-41 -29 -23 -84 28 -84 32 0 50 17 50 46 0 20 -32 54
-50 54 -3 0 -16 -7 -28 -16z"/>
<path d="M16787 2052 c-20 -22 -22 -53 -5 -70 19 -19 66 -15 78 7 14 28 13 38
-10 61 -25 25 -42 25 -63 2z"/>
<path d="M17368 2058 c-24 -20 -28 -44 -12 -67 18 -25 56 -27 78 -5 21 21 20
40 -4 64 -23 23 -40 25 -62 8z"/>
<path d="M17940 2050 c-23 -23 -24 -33 -10 -61 12 -22 59 -26 78 -7 17 17 15
54 -4 72 -21 21 -40 20 -64 -4z"/>
<path d="M18522 2054 c-41 -29 -23 -84 28 -84 32 0 50 17 50 46 0 20 -32 54
-50 54 -3 0 -16 -7 -28 -16z"/>
<path d="M19108 2063 c-22 -5 -35 -50 -21 -72 15 -23 64 -27 80 -5 18 25 16
41 -7 64 -20 20 -22 21 -52 13z"/>
<path d="M322 1478 c-7 -7 -12 -24 -12 -38 0 -31 17 -50 45 -50 28 0 45 19 45
50 0 31 -17 50 -45 50 -12 0 -26 -5 -33 -12z"/>
<path d="M897 1472 c-22 -24 -21 -45 1 -65 37 -34 82 -15 82 33 0 49 -51 68
-83 32z"/>
<path d="M1476 1474 c-9 -8 -16 -24 -16 -34 0 -10 7 -26 16 -34 8 -9 24 -16
34 -16 43 0 65 54 34 84 -8 9 -24 16 -34 16 -10 0 -26 -7 -34 -16z"/>
<path d="M2056 1477 c-28 -20 -18 -69 16 -81 51 -18 89 42 50 77 -22 20 -42
21 -66 4z"/>
<path d="M2632 1478 c-7 -7 -12 -24 -12 -38 0 -31 17 -50 45 -50 28 0 45 19
45 50 0 31 -17 50 -45 50 -12 0 -26 -5 -33 -12z"/>
<path d="M3207 1472 c-22 -25 -21 -45 3 -67 30 -27 74 -10 78 30 6 49 -48 73
-81 37z"/>
<path d="M3786 1474 c-31 -30 -9 -84 34 -84 24 0 50 26 50 50 0 24 -26 50 -50
50 -10 0 -26 -7 -34 -16z"/>
<path d="M4362 1478 c-7 -7 -12 -24 -12 -38 0 -32 17 -50 45 -50 25 0 55 29
55 52 0 36 -62 62 -88 36z"/>
<path d="M4942 1478 c-7 -7 -12 -24 -12 -38 0 -53 57 -69 86 -25 15 23 15 27
0 50 -18 27 -54 33 -74 13z"/>
<path d="M5517 1472 c-22 -25 -21 -45 3 -67 30 -27 74 -10 78 30 6 49 -48 73
-81 37z"/>
<path d="M6096 1474 c-31 -30 -9 -84 34 -84 24 0 50 26 50 50 0 24 -26 50 -50
50 -10 0 -26 -7 -34 -16z"/>
<path d="M6672 1478 c-7 -7 -12 -24 -12 -38 0 -32 17 -50 45 -50 25 0 55 29
55 52 0 36 -62 62 -88 36z"/>
<path d="M7244 1465 c-15 -23 -15 -27 0 -50 29 -44 86 -28 86 25 0 53 -57 69
-86 25z"/>
<path d="M7827 1472 c-22 -25 -21 -45 3 -67 30 -27 74 -10 78 30 6 49 -48 73
-81 37z"/>
<path d="M8406 1474 c-31 -30 -9 -84 34 -84 24 0 50 26 50 50 0 24 -26 50 -50
50 -10 0 -26 -7 -34 -16z"/>
<path d="M8982 1478 c-7 -7 -12 -24 -12 -38 0 -53 57 -69 86 -25 15 23 15 27
0 50 -18 27 -54 33 -74 13z"/>
<path d="M9554 1465 c-15 -23 -15 -27 0 -50 29 -44 86 -28 86 25 0 53 -57 69
-86 25z"/>
<path d="M10137 1472 c-22 -25 -21 -45 3 -67 30 -27 74 -10 78 30 6 49 -48 73
-81 37z"/>
<path d="M10716 1474 c-31 -30 -9 -84 34 -84 24 0 50 26 50 50 0 24 -26 50
-50 50 -10 0 -26 -7 -34 -16z"/>
<path d="M11292 1478 c-7 -7 -12 -24 -12 -38 0 -53 57 -69 86 -25 15 23 15 27
0 50 -18 27 -54 33 -74 13z"/>
<path d="M11864 1465 c-15 -23 -15 -27 0 -50 29 -44 86 -28 86 25 0 53 -57 69
-86 25z"/>
<path d="M12447 1472 c-22 -25 -21 -45 3 -67 30 -27 74 -10 78 30 6 49 -48 73
-81 37z"/>
<path d="M13028 1479 c-25 -14 -24 -65 1 -79 27 -14 47 -13 65 6 44 44 -12
105 -66 73z"/>
<path d="M13602 1478 c-7 -7 -12 -24 -12 -38 0 -53 57 -69 86 -25 15 23 15 27
0 50 -18 27 -54 33 -74 13z"/>
<path d="M14174 1465 c-15 -23 -15 -27 0 -50 29 -44 86 -28 86 25 0 53 -57 69
-86 25z"/>
<path d="M14757 1472 c-22 -25 -21 -45 3 -67 30 -27 74 -10 78 30 6 49 -48 73
-81 37z"/>
<path d="M15338 1479 c-25 -14 -24 -65 1 -79 27 -14 47 -13 65 6 44 44 -12
105 -66 73z"/>
<path d="M15912 1478 c-7 -7 -12 -24 -12 -38 0 -53 57 -69 86 -25 15 23 15 27
0 50 -18 27 -54 33 -74 13z"/>
<path d="M16484 1465 c-15 -23 -15 -27 0 -50 29 -44 86 -28 86 25 0 53 -57 69
-86 25z"/>
<path d="M17067 1472 c-22 -25 -21 -45 3 -67 30 -27 74 -10 78 30 6 49 -48 73
-81 37z"/>
<path d="M17646 1477 c-28 -20 -18 -69 16 -81 51 -18 89 42 50 77 -22 20 -42
21 -66 4z"/>
<path d="M18222 1478 c-7 -7 -12 -24 -12 -38 0 -53 57 -69 86 -25 15 23 15 27
0 50 -18 27 -54 33 -74 13z"/>
<path d="M18794 1465 c-15 -23 -15 -27 0 -50 29 -44 86 -28 86 25 0 53 -57 69
-86 25z"/>
<path d="M30 890 c-22 -41 13 -85 58 -73 26 6 40 48 25 72 -16 26 -69 26 -83
1z"/>
<path d="M612 898 c-20 -20 -14 -56 13 -74 23 -15 27 -15 50 0 27 18 33 54 13
74 -15 15 -61 15 -76 0z"/>
<path d="M1192 898 c-27 -27 -3 -88 34 -88 16 0 54 35 54 51 0 6 -5 19 -10 30
-12 22 -59 26 -78 7z"/>
<path d="M1766 894 c-21 -21 -20 -40 4 -64 23 -23 40 -25 62 -7 24 19 28 43
12 66 -18 25 -56 27 -78 5z"/>
<path d="M2340 890 c-14 -26 -5 -57 21 -71 43 -23 92 44 57 79 -20 20 -66 15
-78 -8z"/>
<path d="M2922 898 c-20 -20 -14 -56 13 -74 23 -15 27 -15 50 0 27 18 33 54
13 74 -15 15 -61 15 -76 0z"/>
<path d="M3502 898 c-27 -27 -3 -88 34 -88 16 0 54 35 54 51 0 6 -5 19 -10 30
-12 22 -59 26 -78 7z"/>
<path d="M4084 902 c-50 -34 2 -111 56 -82 23 12 28 58 8 78 -13 13 -47 16
-64 4z"/>
<path d="M4650 890 c-14 -26 -5 -57 21 -71 43 -23 92 44 57 79 -20 20 -66 15
-78 -8z"/>
<path d="M5232 898 c-20 -20 -14 -56 13 -74 23 -15 27 -15 50 0 27 18 33 54
13 74 -15 15 -61 15 -76 0z"/>
<path d="M5812 898 c-27 -27 -3 -88 34 -88 16 0 54 35 54 51 0 6 -5 19 -10 30
-12 22 -59 26 -78 7z"/>
<path d="M6380 884 c-7 -16 -7 -32 0 -44 24 -44 90 -31 90 18 0 36 -17 52 -52
52 -21 0 -31 -6 -38 -26z"/>
<path d="M6960 891 c-16 -31 -12 -49 15 -67 23 -15 27 -15 50 0 27 18 33 54
13 74 -19 19 -66 15 -78 -7z"/>
<path d="M7542 898 c-20 -20 -14 -56 13 -74 23 -15 27 -15 50 0 27 18 33 54
13 74 -15 15 -61 15 -76 0z"/>
<path d="M8122 898 c-24 -24 -12 -69 21 -81 41 -15 78 33 57 73 -12 23 -58 28
-78 8z"/>
<path d="M8690 890 c-24 -45 21 -92 66 -71 27 12 33 58 12 79 -20 20 -66 15
-78 -8z"/>
<path d="M9270 891 c-16 -31 -12 -49 15 -67 23 -15 27 -15 50 0 27 18 33 54
13 74 -19 19 -66 15 -78 -7z"/>
<path d="M9852 898 c-20 -20 -14 -56 13 -74 23 -15 27 -15 50 0 27 18 31 36
15 67 -12 22 -59 26 -78 7z"/>
<path d="M10432 898 c-20 -20 -14 -66 9 -79 44 -23 93 26 69 71 -12 23 -58 28
-78 8z"/>
<path d="M11000 890 c-22 -41 13 -85 58 -73 26 6 40 48 25 72 -16 26 -69 26
-83 1z"/>
<path d="M11582 898 c-20 -20 -14 -56 13 -74 23 -15 27 -15 50 0 27 18 33 54
13 74 -15 15 -61 15 -76 0z"/>
<path d="M12162 898 c-20 -20 -14 -56 13 -74 23 -15 27 -15 50 0 27 18 31 36
15 67 -12 22 -59 26 -78 7z"/>
<path d="M12742 898 c-19 -19 -15 -66 7 -78 11 -5 24 -10 30 -10 16 0 51 38
51 54 0 37 -61 61 -88 34z"/>
<path d="M13310 890 c-22 -40 17 -89 60 -75 24 7 37 51 23 74 -16 26 -69 26
-83 1z"/>
<path d="M13892 898 c-20 -20 -14 -56 13 -74 23 -15 27 -15 50 0 27 18 33 54
13 74 -15 15 -61 15 -76 0z"/>
<path d="M14472 898 c-35 -35 14 -102 57 -79 45 25 33 91 -17 91 -16 0 -33 -5
-40 -12z"/>
<path d="M15052 898 c-20 -20 -15 -66 8 -78 40 -21 88 16 73 57 -12 33 -57 45
-81 21z"/>
<path d="M15620 890 c-22 -40 17 -89 60 -75 24 7 37 51 23 74 -16 26 -69 26
-83 1z"/>
<path d="M16202 898 c-20 -20 -14 -56 13 -74 23 -15 27 -15 50 0 27 18 33 54
13 74 -15 15 -61 15 -76 0z"/>
<path d="M16782 898 c-18 -18 -14 -53 8 -73 39 -35 96 17 70 65 -12 23 -58 28
-78 8z"/>
<path d="M17356 889 c-21 -31 3 -79 41 -79 17 0 53 36 53 54 0 43 -68 61 -94
25z"/>
<path d="M17930 890 c-22 -40 17 -89 60 -75 24 7 37 51 23 74 -16 26 -69 26
-83 1z"/>
<path d="M18512 898 c-20 -20 -14 -56 13 -74 23 -15 27 -15 50 0 27 18 33 54
13 74 -15 15 -61 15 -76 0z"/>
<path d="M19092 898 c-24 -24 -12 -69 21 -81 41 -15 78 33 57 73 -12 23 -58
28 -78 8z"/>
<path d="M328 329 c-21 -12 -24 -59 -6 -77 15 -15 51 -15 66 0 19 19 15 66 -7
78 -24 12 -31 12 -53 -1z"/>
<path d="M900 320 c-24 -24 -25 -43 -4 -64 18 -19 55 -21 72 -4 19 19 15 66
-7 78 -28 14 -38 13 -61 -10z"/>
<path d="M1475 320 c-15 -16 -17 -26 -9 -48 8 -22 15 -27 44 -27 29 0 36 5 44
27 8 22 6 32 -9 48 -10 11 -26 20 -35 20 -9 0 -25 -9 -35 -20z"/>
<path d="M2056 327 c-22 -16 -18 -65 5 -80 47 -29 101 32 64 73 -21 23 -44 25
-69 7z"/>
<path d="M2638 328 c-37 -31 -20 -88 27 -88 28 0 56 35 48 59 -7 19 -32 41
-48 41 -6 0 -18 -6 -27 -12z"/>
<path d="M3205 320 c-24 -27 -13 -68 22 -76 34 -9 57 6 61 42 6 49 -49 72 -83
34z"/>
<path d="M3785 320 c-15 -16 -17 -26 -9 -48 8 -22 15 -27 44 -27 29 0 36 5 44
27 8 22 6 32 -9 48 -10 11 -26 20 -35 20 -9 0 -25 -9 -35 -20z"/>
<path d="M4368 329 c-21 -12 -24 -59 -6 -77 27 -27 88 -3 88 34 0 17 -36 54
-52 54 -7 0 -21 -5 -30 -11z"/>
<path d="M4948 328 c-37 -31 -20 -88 27 -88 28 0 56 35 48 59 -7 19 -32 41
-48 41 -6 0 -18 -6 -27 -12z"/>
<path d="M5515 320 c-24 -27 -13 -68 22 -76 33 -9 57 6 61 38 6 50 -49 76 -83
38z"/>
<path d="M6097 322 c-36 -39 -12 -86 40 -80 38 4 55 49 28 78 -23 25 -47 26
-68 2z"/>
<path d="M6678 329 c-21 -12 -24 -59 -6 -77 27 -27 88 -3 88 34 0 17 -36 54
-52 54 -7 0 -21 -5 -30 -11z"/>
<path d="M7250 320 c-24 -24 -24 -29 -4 -58 17 -24 53 -29 72 -10 19 19 15 66
-7 78 -28 14 -38 13 -61 -10z"/>
<path d="M7825 320 c-15 -16 -17 -26 -9 -48 17 -50 94 -39 94 14 0 49 -52 70
-85 34z"/>
<path d="M8406 324 c-20 -19 -21 -58 -2 -73 25 -21 69 -9 80 21 17 50 -42 89
-78 52z"/>
<path d="M8988 329 c-21 -12 -24 -59 -6 -77 27 -27 88 -3 88 34 0 17 -36 54
-52 54 -7 0 -21 -5 -30 -11z"/>
<path d="M9560 320 c-24 -24 -24 -29 -4 -58 17 -24 53 -29 72 -10 19 19 15 66
-7 78 -28 14 -38 13 -61 -10z"/>
<path d="M10135 320 c-24 -27 -13 -68 22 -76 33 -9 57 6 61 38 6 50 -49 76
-83 38z"/>
<path d="M10717 322 c-36 -39 -12 -86 40 -80 38 4 55 49 28 78 -23 25 -47 26
-68 2z"/>
<path d="M11298 329 c-21 -12 -24 -59 -6 -77 18 -18 53 -15 71 6 22 24 21 38
-3 62 -22 22 -37 24 -62 9z"/>
<path d="M11870 320 c-24 -24 -24 -29 -4 -58 19 -28 58 -28 78 -1 16 23 12 47
-12 67 -22 17 -39 15 -62 -8z"/>
<path d="M12445 320 c-15 -16 -17 -26 -9 -48 17 -50 94 -39 94 14 0 49 -52 70
-85 34z"/>
<path d="M13027 322 c-36 -39 -12 -86 40 -80 38 4 55 49 28 78 -23 25 -47 26
-68 2z"/>
<path d="M13608 329 c-21 -12 -24 -59 -6 -77 19 -19 55 -14 72 10 20 29 20 34
-4 58 -22 22 -37 24 -62 9z"/>
<path d="M14180 320 c-24 -24 -24 -29 -4 -58 17 -24 53 -29 72 -10 19 19 15
66 -7 78 -28 14 -38 13 -61 -10z"/>
<path d="M14755 320 c-15 -16 -17 -26 -9 -48 17 -50 94 -39 94 14 0 49 -52 70
-85 34z"/>
<path d="M15336 324 c-20 -19 -21 -58 -2 -73 25 -21 69 -9 80 21 17 50 -42 89
-78 52z"/>
<path d="M15918 329 c-21 -12 -24 -59 -6 -77 19 -19 55 -14 72 10 20 29 20 34
-4 58 -22 22 -37 24 -62 9z"/>
<path d="M16490 320 c-25 -25 -25 -42 -2 -63 22 -20 53 -22 70 -5 19 19 15 66
-7 78 -28 14 -38 13 -61 -10z"/>
<path d="M17065 320 c-27 -29 -10 -74 28 -78 53 -6 77 46 39 81 -25 22 -45 21
-67 -3z"/>
<path d="M17646 324 c-20 -19 -21 -58 -2 -73 25 -21 69 -9 80 21 17 50 -42 89
-78 52z"/>
<path d="M18228 329 c-21 -12 -24 -59 -6 -77 19 -19 55 -14 72 10 20 29 20 34
-4 58 -22 22 -37 24 -62 9z"/>
<path d="M18800 320 c-24 -24 -25 -43 -4 -64 18 -19 55 -21 72 -4 19 19 15 66
-7 78 -28 14 -38 13 -61 -10z"/>
</g>
</svg>
