<?xml version="1.0" standalone="no"?>
<!DOCTYPE svg PUBLIC "-//W3C//DTD SVG 20010904//EN"
 "http://www.w3.org/TR/2001/REC-SVG-20010904/DTD/svg10.dtd">
<svg version="1.0" xmlns="http://www.w3.org/2000/svg"
 width="558.000000pt" height="447.000000pt" viewBox="0 0 558.000000 447.000000"
 preserveAspectRatio="xMidYMid meet">

<g transform="translate(0.000000,447.000000) scale(0.100000,-0.100000)"
fill="#009edc" stroke="none">
<path d="M2730 4384 c-504 -61 -913 -245 -1267 -570 -178 -164 -354 -402 -470
-634 -77 -155 -81 -181 -16 -113 27 28 75 73 108 100 237 197 533 301 1020
359 184 23 698 24 945 4 124 -11 324 -15 685 -15 499 0 573 3 775 36 30 5 71
11 90 14 83 12 450 126 444 137 -3 4 2 5 10 2 9 -3 16 -1 16 5 0 6 6 8 14 5 8
-3 23 3 34 14 11 11 23 18 25 15 3 -3 13 -1 21 4 11 6 -1 10 -40 11 -32 1 -61
-1 -66 -4 -12 -8 -560 -4 -590 4 -14 4 -54 33 -89 66 -174 160 -445 329 -654
410 -38 15 -79 31 -90 36 -63 27 -255 75 -390 96 -95 15 -440 27 -515 18z
m2390 -644 c0 -5 -5 -10 -11 -10 -5 0 -7 5 -4 10 3 6 8 10 11 10 2 0 4 -4 4
-10z"/>
<path d="M4685 3324 c-110 -76 -357 -179 -535 -223 -257 -63 -595 -108 -960
-127 -247 -12 -297 -17 -313 -32 -27 -24 -158 -207 -218 -302 -117 -190 -209
-430 -255 -665 -25 -127 -25 -371 0 -485 68 -317 249 -603 471 -748 161 -104
271 -136 475 -136 123 -1 155 3 212 21 164 53 294 158 390 313 41 67 74 136
83 173 7 26 22 44 30 35 6 -5 -19 -111 -46 -203 -59 -196 -225 -410 -409 -530
-195 -126 -463 -205 -693 -205 -205 1 -452 82 -646 215 -99 67 -260 221 -334
320 -108 145 -200 373 -227 560 -13 93 -13 348 1 438 47 320 180 635 391 930
73 102 179 232 202 248 5 4 62 10 128 14 65 4 117 9 115 11 -1 2 -34 6 -73 9
-38 2 -126 10 -195 16 -179 16 -705 6 -826 -15 -329 -58 -587 -190 -814 -416
-138 -138 -229 -273 -305 -455 -17 -43 -65 -205 -60 -205 2 0 23 30 47 67 104
159 202 265 352 380 54 41 100 73 102 71 2 -2 6 -80 9 -173 7 -261 55 -516
141 -754 54 -148 188 -387 305 -542 142 -187 395 -411 606 -535 694 -408 1587
-390 2248 46 440 290 730 671 883 1160 139 440 134 914 -14 1350 -40 119 -183
404 -203 407 -8 1 -37 -13 -65 -33z"/>
</g>
</svg>
